<svg xmlns="http://www.w3.org/2000/svg" width="1224" height="1584" viewBox="0 0 1224 1584">
<defs><linearGradient id="bgt125" x1="0" y1="0" x2="0.4" y2="1"><stop offset="0" stop-color="#fbfbfc"/><stop offset="1" stop-color="#f0f1f5"/></linearGradient><linearGradient id="bdt125" x1="0" y1="0" x2="1" y2="1"><stop offset="0" stop-color="#e1e4ed" stop-opacity="0.9"/><stop offset="1" stop-color="#fbfbfc" stop-opacity="0.35"/></linearGradient></defs>
<rect width="1224" height="1584" fill="url(#bgt125)"/><rect x="0" y="0" width="1224" height="96" fill="url(#bdt125)"/><rect x="0" y="1488" width="1224" height="96" fill="url(#bdt125)" transform="rotate(180 612 1536)"/><rect x="0" y="0" width="96" height="1584" fill="url(#bdt125)"/><rect x="1128" y="0" width="96" height="1584" fill="url(#bdt125)" transform="rotate(180 1176 792)"/><rect x="14" y="14" width="1196" height="1556" fill="none" stroke="#22223b" stroke-width="5" opacity="0.9"/><rect x="44" y="44" width="1136" height="1496" fill="none" stroke="#22223b" stroke-width="4"/><rect x="53" y="53" width="1118" height="1478" fill="none" stroke="#c4bcb4" stroke-width="1.6"/><g transform="translate(18,18) scale(1.12)"><path d="M80,146 C60,126 52,108 60,84 C66,66 82,58 80,30 C104,50 116,74 110,98 C106,116 96,130 80,146 Z" fill="#c4bcb4" opacity="0.85"/><path d="M80,132 C68,118 64,104 70,88 C74,78 82,72 80,54 C96,68 104,84 100,100 C97,112 90,122 80,132 Z" fill="#22223b"/><path d="M40,140 C36,124 40,112 50,104" fill="none" stroke="#22223b" stroke-width="5" stroke-linecap="round"/><path d="M124,140 C128,124 124,112 114,104" fill="none" stroke="#22223b" stroke-width="5" stroke-linecap="round"/><circle cx="34" cy="96" r="6" fill="#c4bcb4"/><circle cx="130" cy="96" r="6" fill="#c4bcb4"/></g><g transform="translate(1206,18) scale(-1.12,1.12)"><path d="M80,146 C60,126 52,108 60,84 C66,66 82,58 80,30 C104,50 116,74 110,98 C106,116 96,130 80,146 Z" fill="#c4bcb4" opacity="0.85"/><path d="M80,132 C68,118 64,104 70,88 C74,78 82,72 80,54 C96,68 104,84 100,100 C97,112 90,122 80,132 Z" fill="#22223b"/><path d="M40,140 C36,124 40,112 50,104" fill="none" stroke="#22223b" stroke-width="5" stroke-linecap="round"/><path d="M124,140 C128,124 124,112 114,104" fill="none" stroke="#22223b" stroke-width="5" stroke-linecap="round"/><circle cx="34" cy="96" r="6" fill="#c4bcb4"/><circle cx="130" cy="96" r="6" fill="#c4bcb4"/></g><g transform="translate(18,1566) scale(1.12,-1.12)"><path d="M80,146 C60,126 52,108 60,84 C66,66 82,58 80,30 C104,50 116,74 110,98 C106,116 96,130 80,146 Z" fill="#c4bcb4" opacity="0.85"/><path d="M80,132 C68,118 64,104 70,88 C74,78 82,72 80,54 C96,68 104,84 100,100 C97,112 90,122 80,132 Z" fill="#22223b"/><path d="M40,140 C36,124 40,112 50,104" fill="none" stroke="#22223b" stroke-width="5" stroke-linecap="round"/><path d="M124,140 C128,124 124,112 114,104" fill="none" stroke="#22223b" stroke-width="5" stroke-linecap="round"/><circle cx="34" cy="96" r="6" fill="#c4bcb4"/><circle cx="130" cy="96" r="6" fill="#c4bcb4"/></g><g transform="translate(1206,1566) scale(-1.12,-1.12)"><path d="M80,146 C60,126 52,108 60,84 C66,66 82,58 80,30 C104,50 116,74 110,98 C106,116 96,130 80,146 Z" fill="#c4bcb4" opacity="0.85"/><path d="M80,132 C68,118 64,104 70,88 C74,78 82,72 80,54 C96,68 104,84 100,100 C97,112 90,122 80,132 Z" fill="#22223b"/><path d="M40,140 C36,124 40,112 50,104" fill="none" stroke="#22223b" stroke-width="5" stroke-linecap="round"/><path d="M124,140 C128,124 124,112 114,104" fill="none" stroke="#22223b" stroke-width="5" stroke-linecap="round"/><circle cx="34" cy="96" r="6" fill="#c4bcb4"/><circle cx="130" cy="96" r="6" fill="#c4bcb4"/></g><rect x="96" y="96" width="1032" height="1392" fill="none" stroke="#c4bcb4" stroke-width="2" opacity="0.75"/><rect x="104" y="104" width="1016" height="1376" fill="none" stroke="#4a4e69" stroke-width="1" opacity="0.55"/><path d="M230,278 Q612,152 994,278" fill="none" stroke="#c4bcb4" stroke-width="2.5" opacity="0.55"/><path d="M250,268 Q612,164 974,268" fill="none" stroke="#4a4e69" stroke-width="1.2" opacity="0.4"/><circle cx="612" cy="196" r="7" fill="#c4bcb4" opacity="0.7"/><circle cx="612" cy="196" r="13" fill="none" stroke="#4a4e69" stroke-width="1.5" opacity="0.5"/><path d="M120,290 H752" stroke="#4a4e69" stroke-width="1.4" opacity="0.55"/><circle cx="120" cy="290" r="4" fill="#c4bcb4" opacity="0.7"/><circle cx="752" cy="290" r="4" fill="#c4bcb4" opacity="0.7"/><rect x="770" y="298" width="340" height="434" rx="4" fill="none" stroke="#c4bcb4" stroke-width="3" opacity="0.7"/><rect x="780" y="308" width="320" height="414" rx="2" fill="none" stroke="#4a4e69" stroke-width="1.2" opacity="0.55"/><g transform="translate(764,292) scale(0.32)" opacity="0.6"><path d="M80,146 C60,126 52,108 60,84 C66,66 82,58 80,30 C104,50 116,74 110,98 C106,116 96,130 80,146 Z" fill="#22223b" opacity="0.85"/><path d="M80,132 C68,118 64,104 70,88 C74,78 82,72 80,54 C96,68 104,84 100,100 C97,112 90,122 80,132 Z" fill="#c4bcb4"/><path d="M40,140 C36,124 40,112 50,104" fill="none" stroke="#c4bcb4" stroke-width="5" stroke-linecap="round"/><path d="M124,140 C128,124 124,112 114,104" fill="none" stroke="#c4bcb4" stroke-width="5" stroke-linecap="round"/><circle cx="34" cy="96" r="6" fill="#22223b"/><circle cx="130" cy="96" r="6" fill="#22223b"/></g><g transform="translate(1120,746) scale(-0.32,0.32)" opacity="0.6"><path d="M80,146 C60,126 52,108 60,84 C66,66 82,58 80,30 C104,50 116,74 110,98 C106,116 96,130 80,146 Z" fill="#22223b" opacity="0.85"/><path d="M80,132 C68,118 64,104 70,88 C74,78 82,72 80,54 C96,68 104,84 100,100 C97,112 90,122 80,132 Z" fill="#c4bcb4"/><path d="M40,140 C36,124 40,112 50,104" fill="none" stroke="#c4bcb4" stroke-width="5" stroke-linecap="round"/><path d="M124,140 C128,124 124,112 114,104" fill="none" stroke="#c4bcb4" stroke-width="5" stroke-linecap="round"/><circle cx="34" cy="96" r="6" fill="#22223b"/><circle cx="130" cy="96" r="6" fill="#22223b"/></g><path d="M108,1436 H752" stroke="#4a4e69" stroke-width="1.4" opacity="0.5"/><g transform="translate(612,1462)" opacity="0.75"><circle r="7" fill="#c4bcb4"/><circle r="14" fill="none" stroke="#4a4e69" stroke-width="1.5"/><line x1="-52" y1="0" x2="-20" y2="0" stroke="#4a4e69" stroke-width="2"/><line x1="20" y1="0" x2="52" y2="0" stroke="#4a4e69" stroke-width="2"/></g>
</svg>
