<svg xmlns="http://www.w3.org/2000/svg" width="1224" height="1584" viewBox="0 0 1224 1584">
<defs><linearGradient id="bgt148" x1="0" y1="0" x2="0.35" y2="1"><stop offset="0" stop-color="#fffcf4"/><stop offset="1" stop-color="#f7efdd"/></linearGradient><linearGradient id="bdt148" x1="0" y1="0" x2="1" y2="1"><stop offset="0" stop-color="#efdfbe" stop-opacity="0.95"/><stop offset="1" stop-color="#efdfbe" stop-opacity="0.55"/></linearGradient></defs>
<rect width="1224" height="1584" fill="url(#bgt148)"/><rect x="0" y="0" width="1224" height="96" fill="url(#bdt148)"/><rect x="0" y="1488" width="1224" height="96" fill="url(#bdt148)" transform="rotate(180 612 1536)"/><rect x="0" y="0" width="96" height="1584" fill="url(#bdt148)"/><rect x="1128" y="0" width="96" height="1584" fill="url(#bdt148)" transform="rotate(180 1176 792)"/><rect x="16" y="16" width="1192" height="1552" fill="none" stroke="#c9972f" stroke-width="6"/><rect x="36" y="36" width="1152" height="1512" fill="none" stroke="#8a6a1f" stroke-width="1.8"/><rect x="52" y="52" width="1120" height="1480" fill="none" stroke="#eccf82" stroke-width="3" stroke-dasharray="16 10"/><g transform="translate(6,6)"><path d="M8,8 C56,6 104,28 112,78 C116,110 94,130 72,124 C52,118 46,96 60,84 C70,74 88,78 90,92" fill="none" stroke="#c9972f" stroke-width="6" stroke-linecap="round"/><path d="M14,14 C48,12 88,30 96,72 C99,96 84,110 68,106 C54,102 50,86 60,78" fill="none" stroke="#8a6a1f" stroke-width="2.4" opacity="0.9"/><path d="M4,40 C28,44 40,62 38,88 C36,110 24,124 8,128" fill="none" stroke="#c9972f" stroke-width="4.5" stroke-linecap="round"/><path d="M40,4 C44,28 62,40 88,38 C110,36 124,24 128,8" fill="none" stroke="#c9972f" stroke-width="4.5" stroke-linecap="round"/><circle cx="98" cy="42" r="7" fill="#c9972f"/><circle cx="78" cy="26" r="5" fill="#8a6a1f"/><circle cx="54" cy="18" r="4" fill="#c9972f"/><circle cx="24" cy="52" r="5.5" fill="#c9972f"/><circle cx="52" cy="14" r="4" fill="#8a6a1f"/><path d="M14,60 C34,68 44,88 42,112" fill="none" stroke="#8a6a1f" stroke-width="3.5"/><circle cx="24" cy="130" r="6" fill="#c9972f"/><circle cx="50" cy="142" r="4" fill="#8a6a1f"/><circle cx="142" cy="24" r="6" fill="#c9972f"/><circle cx="130" cy="50" r="4" fill="#8a6a1f"/><path d="M130,14 C136,44 158,64 150,100" fill="none" stroke="#c9972f" stroke-width="4" opacity="0.85"/><path d="M14,130 C44,136 64,158 100,150" fill="none" stroke="#c9972f" stroke-width="4" opacity="0.85"/><circle cx="152" cy="112" r="5" fill="#8a6a1f"/><circle cx="112" cy="152" r="5" fill="#8a6a1f"/><path d="M8,8 L28,8 L8,28 Z" fill="#c9972f" opacity="0.95"/></g><g transform="translate(1218,6) scale(-1,1)"><path d="M8,8 C56,6 104,28 112,78 C116,110 94,130 72,124 C52,118 46,96 60,84 C70,74 88,78 90,92" fill="none" stroke="#c9972f" stroke-width="6" stroke-linecap="round"/><path d="M14,14 C48,12 88,30 96,72 C99,96 84,110 68,106 C54,102 50,86 60,78" fill="none" stroke="#8a6a1f" stroke-width="2.4" opacity="0.9"/><path d="M4,40 C28,44 40,62 38,88 C36,110 24,124 8,128" fill="none" stroke="#c9972f" stroke-width="4.5" stroke-linecap="round"/><path d="M40,4 C44,28 62,40 88,38 C110,36 124,24 128,8" fill="none" stroke="#c9972f" stroke-width="4.5" stroke-linecap="round"/><circle cx="98" cy="42" r="7" fill="#c9972f"/><circle cx="78" cy="26" r="5" fill="#8a6a1f"/><circle cx="54" cy="18" r="4" fill="#c9972f"/><circle cx="24" cy="52" r="5.5" fill="#c9972f"/><circle cx="52" cy="14" r="4" fill="#8a6a1f"/><path d="M14,60 C34,68 44,88 42,112" fill="none" stroke="#8a6a1f" stroke-width="3.5"/><circle cx="24" cy="130" r="6" fill="#c9972f"/><circle cx="50" cy="142" r="4" fill="#8a6a1f"/><circle cx="142" cy="24" r="6" fill="#c9972f"/><circle cx="130" cy="50" r="4" fill="#8a6a1f"/><path d="M130,14 C136,44 158,64 150,100" fill="none" stroke="#c9972f" stroke-width="4" opacity="0.85"/><path d="M14,130 C44,136 64,158 100,150" fill="none" stroke="#c9972f" stroke-width="4" opacity="0.85"/><circle cx="152" cy="112" r="5" fill="#8a6a1f"/><circle cx="112" cy="152" r="5" fill="#8a6a1f"/><path d="M8,8 L28,8 L8,28 Z" fill="#c9972f" opacity="0.95"/></g><g transform="translate(6,1578) scale(1,-1)"><path d="M8,8 C56,6 104,28 112,78 C116,110 94,130 72,124 C52,118 46,96 60,84 C70,74 88,78 90,92" fill="none" stroke="#c9972f" stroke-width="6" stroke-linecap="round"/><path d="M14,14 C48,12 88,30 96,72 C99,96 84,110 68,106 C54,102 50,86 60,78" fill="none" stroke="#8a6a1f" stroke-width="2.4" opacity="0.9"/><path d="M4,40 C28,44 40,62 38,88 C36,110 24,124 8,128" fill="none" stroke="#c9972f" stroke-width="4.5" stroke-linecap="round"/><path d="M40,4 C44,28 62,40 88,38 C110,36 124,24 128,8" fill="none" stroke="#c9972f" stroke-width="4.5" stroke-linecap="round"/><circle cx="98" cy="42" r="7" fill="#c9972f"/><circle cx="78" cy="26" r="5" fill="#8a6a1f"/><circle cx="54" cy="18" r="4" fill="#c9972f"/><circle cx="24" cy="52" r="5.5" fill="#c9972f"/><circle cx="52" cy="14" r="4" fill="#8a6a1f"/><path d="M14,60 C34,68 44,88 42,112" fill="none" stroke="#8a6a1f" stroke-width="3.5"/><circle cx="24" cy="130" r="6" fill="#c9972f"/><circle cx="50" cy="142" r="4" fill="#8a6a1f"/><circle cx="142" cy="24" r="6" fill="#c9972f"/><circle cx="130" cy="50" r="4" fill="#8a6a1f"/><path d="M130,14 C136,44 158,64 150,100" fill="none" stroke="#c9972f" stroke-width="4" opacity="0.85"/><path d="M14,130 C44,136 64,158 100,150" fill="none" stroke="#c9972f" stroke-width="4" opacity="0.85"/><circle cx="152" cy="112" r="5" fill="#8a6a1f"/><circle cx="112" cy="152" r="5" fill="#8a6a1f"/><path d="M8,8 L28,8 L8,28 Z" fill="#c9972f" opacity="0.95"/></g><g transform="translate(1218,1578) scale(-1,-1)"><path d="M8,8 C56,6 104,28 112,78 C116,110 94,130 72,124 C52,118 46,96 60,84 C70,74 88,78 90,92" fill="none" stroke="#c9972f" stroke-width="6" stroke-linecap="round"/><path d="M14,14 C48,12 88,30 96,72 C99,96 84,110 68,106 C54,102 50,86 60,78" fill="none" stroke="#8a6a1f" stroke-width="2.4" opacity="0.9"/><path d="M4,40 C28,44 40,62 38,88 C36,110 24,124 8,128" fill="none" stroke="#c9972f" stroke-width="4.5" stroke-linecap="round"/><path d="M40,4 C44,28 62,40 88,38 C110,36 124,24 128,8" fill="none" stroke="#c9972f" stroke-width="4.5" stroke-linecap="round"/><circle cx="98" cy="42" r="7" fill="#c9972f"/><circle cx="78" cy="26" r="5" fill="#8a6a1f"/><circle cx="54" cy="18" r="4" fill="#c9972f"/><circle cx="24" cy="52" r="5.5" fill="#c9972f"/><circle cx="52" cy="14" r="4" fill="#8a6a1f"/><path d="M14,60 C34,68 44,88 42,112" fill="none" stroke="#8a6a1f" stroke-width="3.5"/><circle cx="24" cy="130" r="6" fill="#c9972f"/><circle cx="50" cy="142" r="4" fill="#8a6a1f"/><circle cx="142" cy="24" r="6" fill="#c9972f"/><circle cx="130" cy="50" r="4" fill="#8a6a1f"/><path d="M130,14 C136,44 158,64 150,100" fill="none" stroke="#c9972f" stroke-width="4" opacity="0.85"/><path d="M14,130 C44,136 64,158 100,150" fill="none" stroke="#c9972f" stroke-width="4" opacity="0.85"/><circle cx="152" cy="112" r="5" fill="#8a6a1f"/><circle cx="112" cy="152" r="5" fill="#8a6a1f"/><path d="M8,8 L28,8 L8,28 Z" fill="#c9972f" opacity="0.95"/></g><circle cx="940" cy="515" r="150" fill="none" stroke="#c9972f" stroke-width="5"/><circle cx="940" cy="515" r="140" fill="none" stroke="#8a6a1f" stroke-width="1.8"/><line x1="1096.0" y1="515.0" x2="1106.0" y2="515.0" stroke="#c9972f" stroke-width="3.5" stroke-linecap="round"/><circle cx="1106.0" cy="515.0" r="3.5" fill="#8a6a1f"/><line x1="1075.1" y1="593.0" x2="1083.8" y2="598.0" stroke="#c9972f" stroke-width="3.5" stroke-linecap="round"/><circle cx="1083.8" cy="598.0" r="3.5" fill="#8a6a1f"/><line x1="1018.0" y1="650.1" x2="1023.0" y2="658.8" stroke="#c9972f" stroke-width="3.5" stroke-linecap="round"/><circle cx="1023.0" cy="658.8" r="3.5" fill="#8a6a1f"/><line x1="940.0" y1="671.0" x2="940.0" y2="681.0" stroke="#c9972f" stroke-width="3.5" stroke-linecap="round"/><circle cx="940.0" cy="681.0" r="3.5" fill="#8a6a1f"/><line x1="862.0" y1="650.1" x2="857.0" y2="658.8" stroke="#c9972f" stroke-width="3.5" stroke-linecap="round"/><circle cx="857.0" cy="658.8" r="3.5" fill="#8a6a1f"/><line x1="804.9" y1="593.0" x2="796.2" y2="598.0" stroke="#c9972f" stroke-width="3.5" stroke-linecap="round"/><circle cx="796.2" cy="598.0" r="3.5" fill="#8a6a1f"/><line x1="784.0" y1="515.0" x2="774.0" y2="515.0" stroke="#c9972f" stroke-width="3.5" stroke-linecap="round"/><circle cx="774.0" cy="515.0" r="3.5" fill="#8a6a1f"/><line x1="804.9" y1="437.0" x2="796.2" y2="432.0" stroke="#c9972f" stroke-width="3.5" stroke-linecap="round"/><circle cx="796.2" cy="432.0" r="3.5" fill="#8a6a1f"/><line x1="862.0" y1="379.9" x2="857.0" y2="371.2" stroke="#c9972f" stroke-width="3.5" stroke-linecap="round"/><circle cx="857.0" cy="371.2" r="3.5" fill="#8a6a1f"/><line x1="940.0" y1="359.0" x2="940.0" y2="349.0" stroke="#c9972f" stroke-width="3.5" stroke-linecap="round"/><circle cx="940.0" cy="349.0" r="3.5" fill="#8a6a1f"/><line x1="1018.0" y1="379.9" x2="1023.0" y2="371.2" stroke="#c9972f" stroke-width="3.5" stroke-linecap="round"/><circle cx="1023.0" cy="371.2" r="3.5" fill="#8a6a1f"/><line x1="1075.1" y1="437.0" x2="1083.8" y2="432.0" stroke="#c9972f" stroke-width="3.5" stroke-linecap="round"/><circle cx="1083.8" cy="432.0" r="3.5" fill="#8a6a1f"/><path d="M230,278 Q612,150 994,278" fill="none" stroke="#c9972f" stroke-width="2.5" opacity="0.55"/><path d="M252,266 Q612,166 972,266" fill="none" stroke="#8a6a1f" stroke-width="1.2" opacity="0.4"/><circle cx="612" cy="194" r="7" fill="#c9972f" opacity="0.75"/><circle cx="612" cy="194" r="13" fill="none" stroke="#8a6a1f" stroke-width="1.5" opacity="0.5"/><path d="M120,290 H752" stroke="#c9972f" stroke-width="1.4" opacity="0.55"/><circle cx="120" cy="290" r="4" fill="#c9972f" opacity="0.7"/><circle cx="752" cy="290" r="4" fill="#c9972f" opacity="0.7"/><path d="M120,1436 H752" stroke="#8a6a1f" stroke-width="1.2" opacity="0.4"/><g transform="translate(612,1462)" opacity="0.7"><circle r="6" fill="#c9972f"/><circle r="12" fill="none" stroke="#8a6a1f" stroke-width="1.4"/><line x1="-46" y1="0" x2="-18" y2="0" stroke="#8a6a1f" stroke-width="1.8"/><line x1="18" y1="0" x2="46" y2="0" stroke="#8a6a1f" stroke-width="1.8"/></g><rect x="108" y="292" width="652" height="1148" fill="none" stroke="#eccf82" stroke-width="1.4" opacity="0.55"/><path d="M140,300 V1432" stroke="#c9972f" stroke-width="2" opacity="0.35"/><path d="M728,300 V1432" stroke="#c9972f" stroke-width="2" opacity="0.35"/><g transform="translate(612,1466)" opacity="0.75"><g transform="translate(0,0)"><path d="M0,6 Q-28.5,-8.0 -57.1,-11.5 Q-51.4,-2.9 0,6" fill="#c9972f" opacity="0.95"/><path d="M0,6 Q-24.3,-15.3 -48.5,-21.9 Q-43.7,-5.5 0,6" fill="#eccf82" opacity="0.75"/><path d="M0,6 Q-17.6,-21.1 -35.3,-30.1 Q-31.7,-7.5 0,6" fill="#c9972f" opacity="0.95"/><path d="M0,6 Q-9.3,-24.8 -18.5,-35.4 Q-16.7,-8.8 0,6" fill="#eccf82" opacity="0.75"/><path d="M0,6 Q0.0,-26.0 0.0,-37.2 Q0.0,-9.3 0,6" fill="#c9972f" opacity="0.95"/><path d="M0,6 Q9.3,-24.8 18.5,-35.4 Q16.7,-8.8 0,6" fill="#eccf82" opacity="0.75"/><path d="M0,6 Q17.6,-21.1 35.3,-30.1 Q31.7,-7.5 0,6" fill="#c9972f" opacity="0.95"/><path d="M0,6 Q24.3,-15.3 48.5,-21.9 Q43.7,-5.5 0,6" fill="#eccf82" opacity="0.75"/><path d="M0,6 Q28.5,-8.0 57.1,-11.5 Q51.4,-2.9 0,6" fill="#c9972f" opacity="0.95"/><path d="M-42,8 Q0,-10.799999999999999 42,8" fill="none" stroke="#c9972f" stroke-width="3"/></g></g>
</svg>
