<svg xmlns="http://www.w3.org/2000/svg" width="1224" height="1584" viewBox="0 0 1224 1584">
<defs><linearGradient id="bgt154" x1="0" y1="0" x2="0.35" y2="1"><stop offset="0" stop-color="#fffefa"/><stop offset="1" stop-color="#f7f1e4"/></linearGradient><linearGradient id="bdt154" x1="0" y1="0" x2="1" y2="1"><stop offset="0" stop-color="#efe4cd" stop-opacity="0.95"/><stop offset="1" stop-color="#efe4cd" stop-opacity="0.55"/></linearGradient></defs>
<rect width="1224" height="1584" fill="url(#bgt154)"/><rect x="0" y="0" width="1224" height="96" fill="url(#bdt154)"/><rect x="0" y="1488" width="1224" height="96" fill="url(#bdt154)" transform="rotate(180 612 1536)"/><rect x="0" y="0" width="96" height="1584" fill="url(#bdt154)"/><rect x="1128" y="0" width="96" height="1584" fill="url(#bdt154)" transform="rotate(180 1176 792)"/><path d="M190,1488 V560 Q190,150 612,150 Q1034,150 1034,560 V1488" fill="none" stroke="#cfa85c" stroke-width="4"/><path d="M220,1488 V574 Q220,182 612,182 Q1004,182 1004,574 V1488" fill="none" stroke="#ecd9a8" stroke-width="1.8"/><rect x="26" y="26" width="1172" height="1532" fill="none" stroke="#cfa85c" stroke-width="3.5"/><rect x="52" y="52" width="1120" height="1480" fill="none" stroke="#9a814f" stroke-width="1.3" opacity="0.65"/><g transform="translate(6,6)"><path d="M6,150 C36,114 66,78 130,40 C160,22 186,14 210,6" fill="none" stroke="#7f9a72" stroke-width="4" stroke-linecap="round"/><path d="M0,0 Q18.0,-13 36,0 Q18.0,13 0,0" fill="#7f9a72" transform="translate(30,116) rotate(-46)"/><path d="M0,0 Q18.0,-13 36,0 Q18.0,13 0,0" fill="#a5bc98" transform="translate(58,88) rotate(36)"/><path d="M0,0 Q18.0,-13 36,0 Q18.0,13 0,0" fill="#7f9a72" transform="translate(92,60) rotate(-44)"/><path d="M0,0 Q18.0,-13 36,0 Q18.0,13 0,0" fill="#a5bc98" transform="translate(130,40) rotate(30)"/><path d="M0,0 Q18.0,-13 36,0 Q18.0,13 0,0" fill="#7f9a72" transform="translate(170,22) rotate(-34)"/><ellipse cx="56.0" cy="50.2" rx="19.8" ry="13.0" fill="#fdfaf3" transform="rotate(0 56.0 50.2)"/><ellipse cx="74.8" cy="63.9" rx="19.8" ry="13.0" fill="#fdfaf3" transform="rotate(72 74.8 63.9)"/><ellipse cx="67.6" cy="86.0" rx="19.8" ry="13.0" fill="#fdfaf3" transform="rotate(144 67.6 86.0)"/><ellipse cx="44.4" cy="86.0" rx="19.8" ry="13.0" fill="#fdfaf3" transform="rotate(216 44.4 86.0)"/><ellipse cx="37.2" cy="63.9" rx="19.8" ry="13.0" fill="#fdfaf3" transform="rotate(288 37.2 63.9)"/><circle cx="56" cy="70" r="10.8" fill="#cfa85c"/><circle cx="56" cy="70" r="5.0" fill="#9a814f"/><ellipse cx="112.0" cy="28.6" rx="15.4" ry="10.1" fill="#f1e8d6" transform="rotate(0 112.0 28.6)"/><ellipse cx="126.6" cy="39.2" rx="15.4" ry="10.1" fill="#f1e8d6" transform="rotate(72 126.6 39.2)"/><ellipse cx="121.1" cy="56.5" rx="15.4" ry="10.1" fill="#f1e8d6" transform="rotate(144 121.1 56.5)"/><ellipse cx="102.9" cy="56.5" rx="15.4" ry="10.1" fill="#f1e8d6" transform="rotate(216 102.9 56.5)"/><ellipse cx="97.4" cy="39.2" rx="15.4" ry="10.1" fill="#f1e8d6" transform="rotate(288 97.4 39.2)"/><circle cx="112" cy="44" r="8.4" fill="#cfa85c"/><circle cx="112" cy="44" r="3.9" fill="#9a814f"/><ellipse cx="24.0" cy="104.8" rx="13.2" ry="8.6" fill="#fdfaf3" transform="rotate(0 24.0 104.8)"/><ellipse cx="36.6" cy="113.9" rx="13.2" ry="8.6" fill="#fdfaf3" transform="rotate(72 36.6 113.9)"/><ellipse cx="31.8" cy="128.7" rx="13.2" ry="8.6" fill="#fdfaf3" transform="rotate(144 31.8 128.7)"/><ellipse cx="16.2" cy="128.7" rx="13.2" ry="8.6" fill="#fdfaf3" transform="rotate(216 16.2 128.7)"/><ellipse cx="11.4" cy="113.9" rx="13.2" ry="8.6" fill="#fdfaf3" transform="rotate(288 11.4 113.9)"/><circle cx="24" cy="118" r="7.2" fill="#ecd9a8"/><circle cx="24" cy="118" r="3.4" fill="#9a814f"/><circle cx="150" cy="70" r="7" fill="none" stroke="#cfa85c" stroke-width="2.5"/><circle cx="186" cy="40" r="5" fill="none" stroke="#cfa85c" stroke-width="2"/></g><g transform="translate(1218,6) scale(-1,1)"><path d="M6,150 C36,114 66,78 130,40 C160,22 186,14 210,6" fill="none" stroke="#7f9a72" stroke-width="4" stroke-linecap="round"/><path d="M0,0 Q18.0,-13 36,0 Q18.0,13 0,0" fill="#7f9a72" transform="translate(30,116) rotate(-46)"/><path d="M0,0 Q18.0,-13 36,0 Q18.0,13 0,0" fill="#a5bc98" transform="translate(58,88) rotate(36)"/><path d="M0,0 Q18.0,-13 36,0 Q18.0,13 0,0" fill="#7f9a72" transform="translate(92,60) rotate(-44)"/><path d="M0,0 Q18.0,-13 36,0 Q18.0,13 0,0" fill="#a5bc98" transform="translate(130,40) rotate(30)"/><path d="M0,0 Q18.0,-13 36,0 Q18.0,13 0,0" fill="#7f9a72" transform="translate(170,22) rotate(-34)"/><ellipse cx="56.0" cy="50.2" rx="19.8" ry="13.0" fill="#fdfaf3" transform="rotate(0 56.0 50.2)"/><ellipse cx="74.8" cy="63.9" rx="19.8" ry="13.0" fill="#fdfaf3" transform="rotate(72 74.8 63.9)"/><ellipse cx="67.6" cy="86.0" rx="19.8" ry="13.0" fill="#fdfaf3" transform="rotate(144 67.6 86.0)"/><ellipse cx="44.4" cy="86.0" rx="19.8" ry="13.0" fill="#fdfaf3" transform="rotate(216 44.4 86.0)"/><ellipse cx="37.2" cy="63.9" rx="19.8" ry="13.0" fill="#fdfaf3" transform="rotate(288 37.2 63.9)"/><circle cx="56" cy="70" r="10.8" fill="#cfa85c"/><circle cx="56" cy="70" r="5.0" fill="#9a814f"/><ellipse cx="112.0" cy="28.6" rx="15.4" ry="10.1" fill="#f1e8d6" transform="rotate(0 112.0 28.6)"/><ellipse cx="126.6" cy="39.2" rx="15.4" ry="10.1" fill="#f1e8d6" transform="rotate(72 126.6 39.2)"/><ellipse cx="121.1" cy="56.5" rx="15.4" ry="10.1" fill="#f1e8d6" transform="rotate(144 121.1 56.5)"/><ellipse cx="102.9" cy="56.5" rx="15.4" ry="10.1" fill="#f1e8d6" transform="rotate(216 102.9 56.5)"/><ellipse cx="97.4" cy="39.2" rx="15.4" ry="10.1" fill="#f1e8d6" transform="rotate(288 97.4 39.2)"/><circle cx="112" cy="44" r="8.4" fill="#cfa85c"/><circle cx="112" cy="44" r="3.9" fill="#9a814f"/><ellipse cx="24.0" cy="104.8" rx="13.2" ry="8.6" fill="#fdfaf3" transform="rotate(0 24.0 104.8)"/><ellipse cx="36.6" cy="113.9" rx="13.2" ry="8.6" fill="#fdfaf3" transform="rotate(72 36.6 113.9)"/><ellipse cx="31.8" cy="128.7" rx="13.2" ry="8.6" fill="#fdfaf3" transform="rotate(144 31.8 128.7)"/><ellipse cx="16.2" cy="128.7" rx="13.2" ry="8.6" fill="#fdfaf3" transform="rotate(216 16.2 128.7)"/><ellipse cx="11.4" cy="113.9" rx="13.2" ry="8.6" fill="#fdfaf3" transform="rotate(288 11.4 113.9)"/><circle cx="24" cy="118" r="7.2" fill="#ecd9a8"/><circle cx="24" cy="118" r="3.4" fill="#9a814f"/><circle cx="150" cy="70" r="7" fill="none" stroke="#cfa85c" stroke-width="2.5"/><circle cx="186" cy="40" r="5" fill="none" stroke="#cfa85c" stroke-width="2"/></g><g transform="translate(6,1578) scale(1,-1)"><path d="M6,150 C36,114 66,78 130,40 C160,22 186,14 210,6" fill="none" stroke="#7f9a72" stroke-width="4" stroke-linecap="round"/><path d="M0,0 Q18.0,-13 36,0 Q18.0,13 0,0" fill="#7f9a72" transform="translate(30,116) rotate(-46)"/><path d="M0,0 Q18.0,-13 36,0 Q18.0,13 0,0" fill="#a5bc98" transform="translate(58,88) rotate(36)"/><path d="M0,0 Q18.0,-13 36,0 Q18.0,13 0,0" fill="#7f9a72" transform="translate(92,60) rotate(-44)"/><path d="M0,0 Q18.0,-13 36,0 Q18.0,13 0,0" fill="#a5bc98" transform="translate(130,40) rotate(30)"/><path d="M0,0 Q18.0,-13 36,0 Q18.0,13 0,0" fill="#7f9a72" transform="translate(170,22) rotate(-34)"/><ellipse cx="56.0" cy="50.2" rx="19.8" ry="13.0" fill="#fdfaf3" transform="rotate(0 56.0 50.2)"/><ellipse cx="74.8" cy="63.9" rx="19.8" ry="13.0" fill="#fdfaf3" transform="rotate(72 74.8 63.9)"/><ellipse cx="67.6" cy="86.0" rx="19.8" ry="13.0" fill="#fdfaf3" transform="rotate(144 67.6 86.0)"/><ellipse cx="44.4" cy="86.0" rx="19.8" ry="13.0" fill="#fdfaf3" transform="rotate(216 44.4 86.0)"/><ellipse cx="37.2" cy="63.9" rx="19.8" ry="13.0" fill="#fdfaf3" transform="rotate(288 37.2 63.9)"/><circle cx="56" cy="70" r="10.8" fill="#cfa85c"/><circle cx="56" cy="70" r="5.0" fill="#9a814f"/><ellipse cx="112.0" cy="28.6" rx="15.4" ry="10.1" fill="#f1e8d6" transform="rotate(0 112.0 28.6)"/><ellipse cx="126.6" cy="39.2" rx="15.4" ry="10.1" fill="#f1e8d6" transform="rotate(72 126.6 39.2)"/><ellipse cx="121.1" cy="56.5" rx="15.4" ry="10.1" fill="#f1e8d6" transform="rotate(144 121.1 56.5)"/><ellipse cx="102.9" cy="56.5" rx="15.4" ry="10.1" fill="#f1e8d6" transform="rotate(216 102.9 56.5)"/><ellipse cx="97.4" cy="39.2" rx="15.4" ry="10.1" fill="#f1e8d6" transform="rotate(288 97.4 39.2)"/><circle cx="112" cy="44" r="8.4" fill="#cfa85c"/><circle cx="112" cy="44" r="3.9" fill="#9a814f"/><ellipse cx="24.0" cy="104.8" rx="13.2" ry="8.6" fill="#fdfaf3" transform="rotate(0 24.0 104.8)"/><ellipse cx="36.6" cy="113.9" rx="13.2" ry="8.6" fill="#fdfaf3" transform="rotate(72 36.6 113.9)"/><ellipse cx="31.8" cy="128.7" rx="13.2" ry="8.6" fill="#fdfaf3" transform="rotate(144 31.8 128.7)"/><ellipse cx="16.2" cy="128.7" rx="13.2" ry="8.6" fill="#fdfaf3" transform="rotate(216 16.2 128.7)"/><ellipse cx="11.4" cy="113.9" rx="13.2" ry="8.6" fill="#fdfaf3" transform="rotate(288 11.4 113.9)"/><circle cx="24" cy="118" r="7.2" fill="#ecd9a8"/><circle cx="24" cy="118" r="3.4" fill="#9a814f"/><circle cx="150" cy="70" r="7" fill="none" stroke="#cfa85c" stroke-width="2.5"/><circle cx="186" cy="40" r="5" fill="none" stroke="#cfa85c" stroke-width="2"/></g><g transform="translate(1218,1578) scale(-1,-1)"><path d="M6,150 C36,114 66,78 130,40 C160,22 186,14 210,6" fill="none" stroke="#7f9a72" stroke-width="4" stroke-linecap="round"/><path d="M0,0 Q18.0,-13 36,0 Q18.0,13 0,0" fill="#7f9a72" transform="translate(30,116) rotate(-46)"/><path d="M0,0 Q18.0,-13 36,0 Q18.0,13 0,0" fill="#a5bc98" transform="translate(58,88) rotate(36)"/><path d="M0,0 Q18.0,-13 36,0 Q18.0,13 0,0" fill="#7f9a72" transform="translate(92,60) rotate(-44)"/><path d="M0,0 Q18.0,-13 36,0 Q18.0,13 0,0" fill="#a5bc98" transform="translate(130,40) rotate(30)"/><path d="M0,0 Q18.0,-13 36,0 Q18.0,13 0,0" fill="#7f9a72" transform="translate(170,22) rotate(-34)"/><ellipse cx="56.0" cy="50.2" rx="19.8" ry="13.0" fill="#fdfaf3" transform="rotate(0 56.0 50.2)"/><ellipse cx="74.8" cy="63.9" rx="19.8" ry="13.0" fill="#fdfaf3" transform="rotate(72 74.8 63.9)"/><ellipse cx="67.6" cy="86.0" rx="19.8" ry="13.0" fill="#fdfaf3" transform="rotate(144 67.6 86.0)"/><ellipse cx="44.4" cy="86.0" rx="19.8" ry="13.0" fill="#fdfaf3" transform="rotate(216 44.4 86.0)"/><ellipse cx="37.2" cy="63.9" rx="19.8" ry="13.0" fill="#fdfaf3" transform="rotate(288 37.2 63.9)"/><circle cx="56" cy="70" r="10.8" fill="#cfa85c"/><circle cx="56" cy="70" r="5.0" fill="#9a814f"/><ellipse cx="112.0" cy="28.6" rx="15.4" ry="10.1" fill="#f1e8d6" transform="rotate(0 112.0 28.6)"/><ellipse cx="126.6" cy="39.2" rx="15.4" ry="10.1" fill="#f1e8d6" transform="rotate(72 126.6 39.2)"/><ellipse cx="121.1" cy="56.5" rx="15.4" ry="10.1" fill="#f1e8d6" transform="rotate(144 121.1 56.5)"/><ellipse cx="102.9" cy="56.5" rx="15.4" ry="10.1" fill="#f1e8d6" transform="rotate(216 102.9 56.5)"/><ellipse cx="97.4" cy="39.2" rx="15.4" ry="10.1" fill="#f1e8d6" transform="rotate(288 97.4 39.2)"/><circle cx="112" cy="44" r="8.4" fill="#cfa85c"/><circle cx="112" cy="44" r="3.9" fill="#9a814f"/><ellipse cx="24.0" cy="104.8" rx="13.2" ry="8.6" fill="#fdfaf3" transform="rotate(0 24.0 104.8)"/><ellipse cx="36.6" cy="113.9" rx="13.2" ry="8.6" fill="#fdfaf3" transform="rotate(72 36.6 113.9)"/><ellipse cx="31.8" cy="128.7" rx="13.2" ry="8.6" fill="#fdfaf3" transform="rotate(144 31.8 128.7)"/><ellipse cx="16.2" cy="128.7" rx="13.2" ry="8.6" fill="#fdfaf3" transform="rotate(216 16.2 128.7)"/><ellipse cx="11.4" cy="113.9" rx="13.2" ry="8.6" fill="#fdfaf3" transform="rotate(288 11.4 113.9)"/><circle cx="24" cy="118" r="7.2" fill="#ecd9a8"/><circle cx="24" cy="118" r="3.4" fill="#9a814f"/><circle cx="150" cy="70" r="7" fill="none" stroke="#cfa85c" stroke-width="2.5"/><circle cx="186" cy="40" r="5" fill="none" stroke="#cfa85c" stroke-width="2"/></g><ellipse cx="770.0" cy="714.6" rx="15.4" ry="10.1" fill="#fdfaf3" transform="rotate(0 770.0 714.6)"/><ellipse cx="784.6" cy="725.2" rx="15.4" ry="10.1" fill="#fdfaf3" transform="rotate(72 784.6 725.2)"/><ellipse cx="779.1" cy="742.5" rx="15.4" ry="10.1" fill="#fdfaf3" transform="rotate(144 779.1 742.5)"/><ellipse cx="760.9" cy="742.5" rx="15.4" ry="10.1" fill="#fdfaf3" transform="rotate(216 760.9 742.5)"/><ellipse cx="755.4" cy="725.2" rx="15.4" ry="10.1" fill="#fdfaf3" transform="rotate(288 755.4 725.2)"/><circle cx="770" cy="730" r="8.4" fill="#cfa85c"/><circle cx="770" cy="730" r="3.9" fill="#9a814f"/><path d="M0,0 Q21.0,-14 42,0 Q21.0,14 0,0" fill="#7f9a72" transform="translate(746,700) rotate(35)"/><path d="M230,278 Q612,150 994,278" fill="none" stroke="#cfa85c" stroke-width="2.5" opacity="0.55"/><path d="M252,266 Q612,166 972,266" fill="none" stroke="#9a814f" stroke-width="1.2" opacity="0.4"/><circle cx="612" cy="194" r="7" fill="#cfa85c" opacity="0.75"/><circle cx="612" cy="194" r="13" fill="none" stroke="#9a814f" stroke-width="1.5" opacity="0.5"/><path d="M120,290 H752" stroke="#cfa85c" stroke-width="1.4" opacity="0.55"/><circle cx="120" cy="290" r="4" fill="#cfa85c" opacity="0.7"/><circle cx="752" cy="290" r="4" fill="#cfa85c" opacity="0.7"/><path d="M120,1436 H752" stroke="#9a814f" stroke-width="1.2" opacity="0.4"/><g transform="translate(612,1462)" opacity="0.7"><circle r="6" fill="#cfa85c"/><circle r="12" fill="none" stroke="#9a814f" stroke-width="1.4"/><line x1="-46" y1="0" x2="-18" y2="0" stroke="#9a814f" stroke-width="1.8"/><line x1="18" y1="0" x2="46" y2="0" stroke="#9a814f" stroke-width="1.8"/></g><rect x="770" y="298" width="340" height="434" rx="8" fill="none" stroke="#cfa85c" stroke-width="4"/><rect x="782" y="310" width="316" height="410" rx="4" fill="none" stroke="#9a814f" stroke-width="1.6" opacity="0.8"/><circle cx="770" cy="298" r="7" fill="#cfa85c"/><circle cx="1110" cy="298" r="7" fill="#cfa85c"/><circle cx="770" cy="732" r="7" fill="#cfa85c"/><circle cx="1110" cy="732" r="7" fill="#cfa85c"/><g transform="translate(612,1546)"><path d="M0,6 Q-52.3,-14.8 -104.6,-21.1 Q-94.2,-5.3 0,6" fill="#cfa85c" opacity="0.95"/><path d="M0,6 Q-44.5,-28.1 -89.0,-40.1 Q-80.1,-10.0 0,6" fill="#ecd9a8" opacity="0.75"/><path d="M0,6 Q-32.3,-38.6 -64.7,-55.2 Q-58.2,-13.8 0,6" fill="#cfa85c" opacity="0.95"/><path d="M0,6 Q-17.0,-45.4 -34.0,-64.9 Q-30.6,-16.2 0,6" fill="#ecd9a8" opacity="0.75"/><path d="M0,6 Q0.0,-47.7 0.0,-68.2 Q0.0,-17.1 0,6" fill="#cfa85c" opacity="0.95"/><path d="M0,6 Q17.0,-45.4 34.0,-64.9 Q30.6,-16.2 0,6" fill="#ecd9a8" opacity="0.75"/><path d="M0,6 Q32.3,-38.6 64.7,-55.2 Q58.2,-13.8 0,6" fill="#cfa85c" opacity="0.95"/><path d="M0,6 Q44.5,-28.1 89.0,-40.1 Q80.1,-10.0 0,6" fill="#ecd9a8" opacity="0.75"/><path d="M0,6 Q52.3,-14.8 104.6,-21.1 Q94.2,-5.3 0,6" fill="#cfa85c" opacity="0.95"/><path d="M-77,8 Q0,-19.8 77,8" fill="none" stroke="#cfa85c" stroke-width="3"/></g>
</svg>
