<svg xmlns="http://www.w3.org/2000/svg" width="1224" height="1584" viewBox="0 0 1224 1584">
<defs><linearGradient id="bgt157" x1="0" y1="0" x2="0.35" y2="1"><stop offset="0" stop-color="#fff8f9"/><stop offset="1" stop-color="#ffeef1"/></linearGradient><linearGradient id="bdt157" x1="0" y1="0" x2="1" y2="1"><stop offset="0" stop-color="#f9dde3" stop-opacity="0.95"/><stop offset="1" stop-color="#f9dde3" stop-opacity="0.55"/></linearGradient><linearGradient id="sil157" x1="0" y1="0" x2="1" y2="1"><stop offset="0" stop-color="#e8899b"/><stop offset="1" stop-color="#f6c4cf"/></linearGradient><linearGradient id="sil257" x1="1" y1="0" x2="0" y2="1"><stop offset="0" stop-color="#f6c4cf"/><stop offset="1" stop-color="#fff"/> </linearGradient></defs>
<rect width="1224" height="1584" fill="url(#bgt157)"/><rect x="0" y="0" width="1224" height="96" fill="url(#bdt157)"/><rect x="0" y="1488" width="1224" height="96" fill="url(#bdt157)" transform="rotate(180 612 1536)"/><rect x="0" y="0" width="96" height="1584" fill="url(#bdt157)"/><rect x="1128" y="0" width="96" height="1584" fill="url(#bdt157)" transform="rotate(180 1176 792)"/><path d="M1224,0 C1120,180 1160,360 1120,560 C1080,760 1140,980 1100,1180 C1070,1340 1110,1470 1090,1584 L1224,1584 Z" fill="url(#sil157)" opacity="0.5"/><path d="M1224,120 C1140,300 1180,460 1150,640 C1120,820 1170,1020 1140,1200 C1120,1340 1150,1460 1140,1584" fill="none" stroke="#c25a72" stroke-width="4" opacity="0.55"/><path d="M0,1480 C160,1400 300,1460 460,1420 C620,1380 740,1440 900,1400 C1060,1360 1160,1400 1224,1380 L1224,1584 L0,1584 Z" fill="url(#sil257)" opacity="0.45"/><rect x="24" y="24" width="1176" height="1536" fill="none" stroke="#e8899b" stroke-width="4"/><rect x="48" y="48" width="1128" height="1488" fill="none" stroke="#d9a05a" stroke-width="1.8" opacity="0.85"/><g transform="translate(6,6)"><ellipse cx="52.0" cy="47.3" rx="18.7" ry="12.2" fill="#e8899b" transform="rotate(0 52.0 47.3)"/><ellipse cx="69.8" cy="60.2" rx="18.7" ry="12.2" fill="#e8899b" transform="rotate(72 69.8 60.2)"/><ellipse cx="63.0" cy="81.1" rx="18.7" ry="12.2" fill="#e8899b" transform="rotate(144 63.0 81.1)"/><ellipse cx="41.0" cy="81.1" rx="18.7" ry="12.2" fill="#e8899b" transform="rotate(216 41.0 81.1)"/><ellipse cx="34.2" cy="60.2" rx="18.7" ry="12.2" fill="#e8899b" transform="rotate(288 34.2 60.2)"/><circle cx="52" cy="66" r="10.2" fill="#f7e08a"/><circle cx="52" cy="66" r="4.8" fill="#c25a72"/><ellipse cx="110.0" cy="15.7" rx="14.3" ry="9.4" fill="#f6c4cf" transform="rotate(0 110.0 15.7)"/><ellipse cx="123.6" cy="25.6" rx="14.3" ry="9.4" fill="#f6c4cf" transform="rotate(72 123.6 25.6)"/><ellipse cx="118.4" cy="41.6" rx="14.3" ry="9.4" fill="#f6c4cf" transform="rotate(144 118.4 41.6)"/><ellipse cx="101.6" cy="41.6" rx="14.3" ry="9.4" fill="#f6c4cf" transform="rotate(216 101.6 41.6)"/><ellipse cx="96.4" cy="25.6" rx="14.3" ry="9.4" fill="#f6c4cf" transform="rotate(288 96.4 25.6)"/><circle cx="110" cy="30" r="7.8" fill="#f7e08a"/><circle cx="110" cy="30" r="3.6" fill="#c25a72"/><ellipse cx="26.0" cy="105.9" rx="12.1" ry="7.9" fill="#c25a72" transform="rotate(0 26.0 105.9)"/><ellipse cx="37.5" cy="114.3" rx="12.1" ry="7.9" fill="#c25a72" transform="rotate(72 37.5 114.3)"/><ellipse cx="33.1" cy="127.8" rx="12.1" ry="7.9" fill="#c25a72" transform="rotate(144 33.1 127.8)"/><ellipse cx="18.9" cy="127.8" rx="12.1" ry="7.9" fill="#c25a72" transform="rotate(216 18.9 127.8)"/><ellipse cx="14.5" cy="114.3" rx="12.1" ry="7.9" fill="#c25a72" transform="rotate(288 14.5 114.3)"/><circle cx="26" cy="118" r="6.6" fill="#f7e08a"/><circle cx="26" cy="118" r="3.1" fill="#f6c4cf"/><path d="M0,0 Q25.0,-16 50,0 Q25.0,16 0,0" fill="#7fa06a" transform="translate(6,44) rotate(35)"/><path d="M0,0 Q22.0,-14 44,0 Q22.0,14 0,0" fill="#95b47e" opacity="0.9" transform="translate(40,8) rotate(78)"/><path d="M84,110.4 Q82.2,101.4 84,96 Q85.8,101.4 84,110.4" fill="#f6c4cf"/><path d="M84,109.5 C80,117.6 87,123 83,132" fill="none" stroke="#7fa06a" stroke-width="2.4" stroke-linecap="round"/><circle cx="140" cy="80" r="5" fill="#f6c4cf"/><circle cx="30" cy="146" r="4.5" fill="#e8899b"/></g><g transform="translate(1218,6) scale(-1,1)"><ellipse cx="52.0" cy="47.3" rx="18.7" ry="12.2" fill="#e8899b" transform="rotate(0 52.0 47.3)"/><ellipse cx="69.8" cy="60.2" rx="18.7" ry="12.2" fill="#e8899b" transform="rotate(72 69.8 60.2)"/><ellipse cx="63.0" cy="81.1" rx="18.7" ry="12.2" fill="#e8899b" transform="rotate(144 63.0 81.1)"/><ellipse cx="41.0" cy="81.1" rx="18.7" ry="12.2" fill="#e8899b" transform="rotate(216 41.0 81.1)"/><ellipse cx="34.2" cy="60.2" rx="18.7" ry="12.2" fill="#e8899b" transform="rotate(288 34.2 60.2)"/><circle cx="52" cy="66" r="10.2" fill="#f7e08a"/><circle cx="52" cy="66" r="4.8" fill="#c25a72"/><ellipse cx="110.0" cy="15.7" rx="14.3" ry="9.4" fill="#f6c4cf" transform="rotate(0 110.0 15.7)"/><ellipse cx="123.6" cy="25.6" rx="14.3" ry="9.4" fill="#f6c4cf" transform="rotate(72 123.6 25.6)"/><ellipse cx="118.4" cy="41.6" rx="14.3" ry="9.4" fill="#f6c4cf" transform="rotate(144 118.4 41.6)"/><ellipse cx="101.6" cy="41.6" rx="14.3" ry="9.4" fill="#f6c4cf" transform="rotate(216 101.6 41.6)"/><ellipse cx="96.4" cy="25.6" rx="14.3" ry="9.4" fill="#f6c4cf" transform="rotate(288 96.4 25.6)"/><circle cx="110" cy="30" r="7.8" fill="#f7e08a"/><circle cx="110" cy="30" r="3.6" fill="#c25a72"/><ellipse cx="26.0" cy="105.9" rx="12.1" ry="7.9" fill="#c25a72" transform="rotate(0 26.0 105.9)"/><ellipse cx="37.5" cy="114.3" rx="12.1" ry="7.9" fill="#c25a72" transform="rotate(72 37.5 114.3)"/><ellipse cx="33.1" cy="127.8" rx="12.1" ry="7.9" fill="#c25a72" transform="rotate(144 33.1 127.8)"/><ellipse cx="18.9" cy="127.8" rx="12.1" ry="7.9" fill="#c25a72" transform="rotate(216 18.9 127.8)"/><ellipse cx="14.5" cy="114.3" rx="12.1" ry="7.9" fill="#c25a72" transform="rotate(288 14.5 114.3)"/><circle cx="26" cy="118" r="6.6" fill="#f7e08a"/><circle cx="26" cy="118" r="3.1" fill="#f6c4cf"/><path d="M0,0 Q25.0,-16 50,0 Q25.0,16 0,0" fill="#7fa06a" transform="translate(6,44) rotate(35)"/><path d="M0,0 Q22.0,-14 44,0 Q22.0,14 0,0" fill="#95b47e" opacity="0.9" transform="translate(40,8) rotate(78)"/><path d="M84,110.4 Q82.2,101.4 84,96 Q85.8,101.4 84,110.4" fill="#f6c4cf"/><path d="M84,109.5 C80,117.6 87,123 83,132" fill="none" stroke="#7fa06a" stroke-width="2.4" stroke-linecap="round"/><circle cx="140" cy="80" r="5" fill="#f6c4cf"/><circle cx="30" cy="146" r="4.5" fill="#e8899b"/></g><g transform="translate(6,1578) scale(1,-1)"><ellipse cx="52.0" cy="47.3" rx="18.7" ry="12.2" fill="#e8899b" transform="rotate(0 52.0 47.3)"/><ellipse cx="69.8" cy="60.2" rx="18.7" ry="12.2" fill="#e8899b" transform="rotate(72 69.8 60.2)"/><ellipse cx="63.0" cy="81.1" rx="18.7" ry="12.2" fill="#e8899b" transform="rotate(144 63.0 81.1)"/><ellipse cx="41.0" cy="81.1" rx="18.7" ry="12.2" fill="#e8899b" transform="rotate(216 41.0 81.1)"/><ellipse cx="34.2" cy="60.2" rx="18.7" ry="12.2" fill="#e8899b" transform="rotate(288 34.2 60.2)"/><circle cx="52" cy="66" r="10.2" fill="#f7e08a"/><circle cx="52" cy="66" r="4.8" fill="#c25a72"/><ellipse cx="110.0" cy="15.7" rx="14.3" ry="9.4" fill="#f6c4cf" transform="rotate(0 110.0 15.7)"/><ellipse cx="123.6" cy="25.6" rx="14.3" ry="9.4" fill="#f6c4cf" transform="rotate(72 123.6 25.6)"/><ellipse cx="118.4" cy="41.6" rx="14.3" ry="9.4" fill="#f6c4cf" transform="rotate(144 118.4 41.6)"/><ellipse cx="101.6" cy="41.6" rx="14.3" ry="9.4" fill="#f6c4cf" transform="rotate(216 101.6 41.6)"/><ellipse cx="96.4" cy="25.6" rx="14.3" ry="9.4" fill="#f6c4cf" transform="rotate(288 96.4 25.6)"/><circle cx="110" cy="30" r="7.8" fill="#f7e08a"/><circle cx="110" cy="30" r="3.6" fill="#c25a72"/><ellipse cx="26.0" cy="105.9" rx="12.1" ry="7.9" fill="#c25a72" transform="rotate(0 26.0 105.9)"/><ellipse cx="37.5" cy="114.3" rx="12.1" ry="7.9" fill="#c25a72" transform="rotate(72 37.5 114.3)"/><ellipse cx="33.1" cy="127.8" rx="12.1" ry="7.9" fill="#c25a72" transform="rotate(144 33.1 127.8)"/><ellipse cx="18.9" cy="127.8" rx="12.1" ry="7.9" fill="#c25a72" transform="rotate(216 18.9 127.8)"/><ellipse cx="14.5" cy="114.3" rx="12.1" ry="7.9" fill="#c25a72" transform="rotate(288 14.5 114.3)"/><circle cx="26" cy="118" r="6.6" fill="#f7e08a"/><circle cx="26" cy="118" r="3.1" fill="#f6c4cf"/><path d="M0,0 Q25.0,-16 50,0 Q25.0,16 0,0" fill="#7fa06a" transform="translate(6,44) rotate(35)"/><path d="M0,0 Q22.0,-14 44,0 Q22.0,14 0,0" fill="#95b47e" opacity="0.9" transform="translate(40,8) rotate(78)"/><path d="M84,110.4 Q82.2,101.4 84,96 Q85.8,101.4 84,110.4" fill="#f6c4cf"/><path d="M84,109.5 C80,117.6 87,123 83,132" fill="none" stroke="#7fa06a" stroke-width="2.4" stroke-linecap="round"/><circle cx="140" cy="80" r="5" fill="#f6c4cf"/><circle cx="30" cy="146" r="4.5" fill="#e8899b"/></g><g transform="translate(1218,1578) scale(-1,-1)"><ellipse cx="52.0" cy="47.3" rx="18.7" ry="12.2" fill="#e8899b" transform="rotate(0 52.0 47.3)"/><ellipse cx="69.8" cy="60.2" rx="18.7" ry="12.2" fill="#e8899b" transform="rotate(72 69.8 60.2)"/><ellipse cx="63.0" cy="81.1" rx="18.7" ry="12.2" fill="#e8899b" transform="rotate(144 63.0 81.1)"/><ellipse cx="41.0" cy="81.1" rx="18.7" ry="12.2" fill="#e8899b" transform="rotate(216 41.0 81.1)"/><ellipse cx="34.2" cy="60.2" rx="18.7" ry="12.2" fill="#e8899b" transform="rotate(288 34.2 60.2)"/><circle cx="52" cy="66" r="10.2" fill="#f7e08a"/><circle cx="52" cy="66" r="4.8" fill="#c25a72"/><ellipse cx="110.0" cy="15.7" rx="14.3" ry="9.4" fill="#f6c4cf" transform="rotate(0 110.0 15.7)"/><ellipse cx="123.6" cy="25.6" rx="14.3" ry="9.4" fill="#f6c4cf" transform="rotate(72 123.6 25.6)"/><ellipse cx="118.4" cy="41.6" rx="14.3" ry="9.4" fill="#f6c4cf" transform="rotate(144 118.4 41.6)"/><ellipse cx="101.6" cy="41.6" rx="14.3" ry="9.4" fill="#f6c4cf" transform="rotate(216 101.6 41.6)"/><ellipse cx="96.4" cy="25.6" rx="14.3" ry="9.4" fill="#f6c4cf" transform="rotate(288 96.4 25.6)"/><circle cx="110" cy="30" r="7.8" fill="#f7e08a"/><circle cx="110" cy="30" r="3.6" fill="#c25a72"/><ellipse cx="26.0" cy="105.9" rx="12.1" ry="7.9" fill="#c25a72" transform="rotate(0 26.0 105.9)"/><ellipse cx="37.5" cy="114.3" rx="12.1" ry="7.9" fill="#c25a72" transform="rotate(72 37.5 114.3)"/><ellipse cx="33.1" cy="127.8" rx="12.1" ry="7.9" fill="#c25a72" transform="rotate(144 33.1 127.8)"/><ellipse cx="18.9" cy="127.8" rx="12.1" ry="7.9" fill="#c25a72" transform="rotate(216 18.9 127.8)"/><ellipse cx="14.5" cy="114.3" rx="12.1" ry="7.9" fill="#c25a72" transform="rotate(288 14.5 114.3)"/><circle cx="26" cy="118" r="6.6" fill="#f7e08a"/><circle cx="26" cy="118" r="3.1" fill="#f6c4cf"/><path d="M0,0 Q25.0,-16 50,0 Q25.0,16 0,0" fill="#7fa06a" transform="translate(6,44) rotate(35)"/><path d="M0,0 Q22.0,-14 44,0 Q22.0,14 0,0" fill="#95b47e" opacity="0.9" transform="translate(40,8) rotate(78)"/><path d="M84,110.4 Q82.2,101.4 84,96 Q85.8,101.4 84,110.4" fill="#f6c4cf"/><path d="M84,109.5 C80,117.6 87,123 83,132" fill="none" stroke="#7fa06a" stroke-width="2.4" stroke-linecap="round"/><circle cx="140" cy="80" r="5" fill="#f6c4cf"/><circle cx="30" cy="146" r="4.5" fill="#e8899b"/></g><ellipse cx="1050.0" cy="1376.9" rx="23.1" ry="15.1" fill="#e8899b" transform="rotate(0 1050.0 1376.9)"/><ellipse cx="1072.0" cy="1392.9" rx="23.1" ry="15.1" fill="#e8899b" transform="rotate(72 1072.0 1392.9)"/><ellipse cx="1063.6" cy="1418.7" rx="23.1" ry="15.1" fill="#e8899b" transform="rotate(144 1063.6 1418.7)"/><ellipse cx="1036.4" cy="1418.7" rx="23.1" ry="15.1" fill="#e8899b" transform="rotate(216 1036.4 1418.7)"/><ellipse cx="1028.0" cy="1392.9" rx="23.1" ry="15.1" fill="#e8899b" transform="rotate(288 1028.0 1392.9)"/><circle cx="1050" cy="1400" r="12.6" fill="#f7e08a"/><circle cx="1050" cy="1400" r="5.9" fill="#c25a72"/><ellipse cx="1148.0" cy="1451.5" rx="16.5" ry="10.8" fill="#f6c4cf" transform="rotate(0 1148.0 1451.5)"/><ellipse cx="1163.7" cy="1462.9" rx="16.5" ry="10.8" fill="#f6c4cf" transform="rotate(72 1163.7 1462.9)"/><ellipse cx="1157.7" cy="1481.3" rx="16.5" ry="10.8" fill="#f6c4cf" transform="rotate(144 1157.7 1481.3)"/><ellipse cx="1138.3" cy="1481.3" rx="16.5" ry="10.8" fill="#f6c4cf" transform="rotate(216 1138.3 1481.3)"/><ellipse cx="1132.3" cy="1462.9" rx="16.5" ry="10.8" fill="#f6c4cf" transform="rotate(288 1132.3 1462.9)"/><circle cx="1148" cy="1468" r="9.0" fill="#f7e08a"/><circle cx="1148" cy="1468" r="4.2" fill="#c25a72"/><path d="M0,0 Q28.0,-18 56,0 Q28.0,18 0,0" fill="#7fa06a" transform="translate(990,1466) rotate(-40)"/><path d="M230,278 Q612,150 994,278" fill="none" stroke="#d9a05a" stroke-width="2.5" opacity="0.55"/><path d="M252,266 Q612,166 972,266" fill="none" stroke="#b06a7c" stroke-width="1.2" opacity="0.4"/><circle cx="612" cy="194" r="7" fill="#d9a05a" opacity="0.75"/><circle cx="612" cy="194" r="13" fill="none" stroke="#b06a7c" stroke-width="1.5" opacity="0.5"/><path d="M120,290 H752" stroke="#e8899b" stroke-width="1.4" opacity="0.55"/><circle cx="120" cy="290" r="4" fill="#e8899b" opacity="0.7"/><circle cx="752" cy="290" r="4" fill="#e8899b" opacity="0.7"/><path d="M120,1436 H752" stroke="#b06a7c" stroke-width="1.2" opacity="0.4"/><g transform="translate(612,1462)" opacity="0.7"><circle r="6" fill="#e8899b"/><circle r="12" fill="none" stroke="#b06a7c" stroke-width="1.4"/><line x1="-46" y1="0" x2="-18" y2="0" stroke="#b06a7c" stroke-width="1.8"/><line x1="18" y1="0" x2="46" y2="0" stroke="#b06a7c" stroke-width="1.8"/></g><rect x="770" y="298" width="340" height="434" rx="170" fill="none" stroke="#e8899b" stroke-width="4"/><rect x="782" y="310" width="316" height="410" rx="166" fill="none" stroke="#c25a72" stroke-width="1.6" opacity="0.8"/><circle cx="770" cy="298" r="7" fill="#e8899b"/><circle cx="1110" cy="298" r="7" fill="#e8899b"/><circle cx="770" cy="732" r="7" fill="#e8899b"/><circle cx="1110" cy="732" r="7" fill="#e8899b"/>
</svg>
