<svg xmlns="http://www.w3.org/2000/svg" width="1224" height="1584" viewBox="0 0 1224 1584">
<defs><linearGradient id="bgt169" x1="0" y1="0" x2="0.35" y2="1"><stop offset="0" stop-color="#fffcf4"/><stop offset="1" stop-color="#f6ead6"/></linearGradient><linearGradient id="bdt169" x1="0" y1="0" x2="1" y2="1"><stop offset="0" stop-color="#eedcc0" stop-opacity="0.95"/><stop offset="1" stop-color="#eedcc0" stop-opacity="0.55"/></linearGradient></defs>
<rect width="1224" height="1584" fill="url(#bgt169)"/><rect x="0" y="0" width="1224" height="96" fill="url(#bdt169)"/><rect x="0" y="1488" width="1224" height="96" fill="url(#bdt169)" transform="rotate(180 612 1536)"/><rect x="0" y="0" width="96" height="1584" fill="url(#bdt169)"/><rect x="1128" y="0" width="96" height="1584" fill="url(#bdt169)" transform="rotate(180 1176 792)"/><rect x="22" y="22" width="1180" height="1540" fill="none" stroke="#c9972f" stroke-width="5"/><rect x="46" y="46" width="1132" height="1492" fill="none" stroke="#8a5a1f" stroke-width="1.6"/><g transform="translate(6,6)"><path d="M4,170 C40,120 90,70 170,30" fill="none" stroke="#8a4a24" stroke-width="5" stroke-linecap="round"/><g transform="translate(30,130) rotate(-40) scale(1.15)"><path d="M0,0 C14,-8 28,-6 40,0 C28,6 14,8 0,0 Z" fill="#a85f2e"/><path d="M0,0 L40,0" stroke="#8a4a24" stroke-width="1.4" opacity="0.8"/><path d="M12,-4 L18,-10 M22,-3 L28,-9 M12,4 L18,10 M22,3 L28,9" stroke="#8a4a24" stroke-width="1" opacity="0.7"/></g><g transform="translate(70,92) rotate(35) scale(1.15)"><path d="M0,0 C14,-8 28,-6 40,0 C28,6 14,8 0,0 Z" fill="#a85f2e"/><path d="M0,0 L40,0" stroke="#8a4a24" stroke-width="1.4" opacity="0.8"/><path d="M12,-4 L18,-10 M22,-3 L28,-9 M12,4 L18,10 M22,3 L28,9" stroke="#8a4a24" stroke-width="1" opacity="0.7"/></g><g transform="translate(115,58) rotate(-45) scale(1.15)"><path d="M0,0 C14,-8 28,-6 40,0 C28,6 14,8 0,0 Z" fill="#d4924a"/><path d="M0,0 L40,0" stroke="#8a4a24" stroke-width="1.4" opacity="0.8"/><path d="M12,-4 L18,-10 M22,-3 L28,-9 M12,4 L18,10 M22,3 L28,9" stroke="#8a4a24" stroke-width="1" opacity="0.7"/></g><g transform="translate(155,34) rotate(30) scale(1.15)"><path d="M0,0 C14,-8 28,-6 40,0 C28,6 14,8 0,0 Z" fill="#d4924a"/><path d="M0,0 L40,0" stroke="#8a4a24" stroke-width="1.4" opacity="0.8"/><path d="M12,-4 L18,-10 M22,-3 L28,-9 M12,4 L18,10 M22,3 L28,9" stroke="#8a4a24" stroke-width="1" opacity="0.7"/></g><g transform="translate(48,148) rotate(50) scale(1.15)"><path d="M0,0 C14,-8 28,-6 40,0 C28,6 14,8 0,0 Z" fill="#a85f2e"/><path d="M0,0 L40,0" stroke="#8a4a24" stroke-width="1.4" opacity="0.8"/><path d="M12,-4 L18,-10 M22,-3 L28,-9 M12,4 L18,10 M22,3 L28,9" stroke="#8a4a24" stroke-width="1" opacity="0.7"/></g><g transform="translate(95,112) rotate(-30) scale(1.15)"><path d="M0,0 C14,-8 28,-6 40,0 C28,6 14,8 0,0 Z" fill="#d4924a"/><path d="M0,0 L40,0" stroke="#8a4a24" stroke-width="1.4" opacity="0.8"/><path d="M12,-4 L18,-10 M22,-3 L28,-9 M12,4 L18,10 M22,3 L28,9" stroke="#8a4a24" stroke-width="1" opacity="0.7"/></g><circle cx="60" cy="70" r="7" fill="#c9972f"/><circle cx="130" cy="90" r="5" fill="#c47a3a"/><circle cx="40" cy="100" r="5.5" fill="#eccf82"/><circle cx="170" cy="60" r="6" fill="#c47a3a"/></g><g transform="translate(1218,6) scale(-1,1)"><path d="M4,170 C40,120 90,70 170,30" fill="none" stroke="#8a4a24" stroke-width="5" stroke-linecap="round"/><g transform="translate(30,130) rotate(-40) scale(1.15)"><path d="M0,0 C14,-8 28,-6 40,0 C28,6 14,8 0,0 Z" fill="#a85f2e"/><path d="M0,0 L40,0" stroke="#8a4a24" stroke-width="1.4" opacity="0.8"/><path d="M12,-4 L18,-10 M22,-3 L28,-9 M12,4 L18,10 M22,3 L28,9" stroke="#8a4a24" stroke-width="1" opacity="0.7"/></g><g transform="translate(70,92) rotate(35) scale(1.15)"><path d="M0,0 C14,-8 28,-6 40,0 C28,6 14,8 0,0 Z" fill="#a85f2e"/><path d="M0,0 L40,0" stroke="#8a4a24" stroke-width="1.4" opacity="0.8"/><path d="M12,-4 L18,-10 M22,-3 L28,-9 M12,4 L18,10 M22,3 L28,9" stroke="#8a4a24" stroke-width="1" opacity="0.7"/></g><g transform="translate(115,58) rotate(-45) scale(1.15)"><path d="M0,0 C14,-8 28,-6 40,0 C28,6 14,8 0,0 Z" fill="#d4924a"/><path d="M0,0 L40,0" stroke="#8a4a24" stroke-width="1.4" opacity="0.8"/><path d="M12,-4 L18,-10 M22,-3 L28,-9 M12,4 L18,10 M22,3 L28,9" stroke="#8a4a24" stroke-width="1" opacity="0.7"/></g><g transform="translate(155,34) rotate(30) scale(1.15)"><path d="M0,0 C14,-8 28,-6 40,0 C28,6 14,8 0,0 Z" fill="#d4924a"/><path d="M0,0 L40,0" stroke="#8a4a24" stroke-width="1.4" opacity="0.8"/><path d="M12,-4 L18,-10 M22,-3 L28,-9 M12,4 L18,10 M22,3 L28,9" stroke="#8a4a24" stroke-width="1" opacity="0.7"/></g><g transform="translate(48,148) rotate(50) scale(1.15)"><path d="M0,0 C14,-8 28,-6 40,0 C28,6 14,8 0,0 Z" fill="#a85f2e"/><path d="M0,0 L40,0" stroke="#8a4a24" stroke-width="1.4" opacity="0.8"/><path d="M12,-4 L18,-10 M22,-3 L28,-9 M12,4 L18,10 M22,3 L28,9" stroke="#8a4a24" stroke-width="1" opacity="0.7"/></g><g transform="translate(95,112) rotate(-30) scale(1.15)"><path d="M0,0 C14,-8 28,-6 40,0 C28,6 14,8 0,0 Z" fill="#d4924a"/><path d="M0,0 L40,0" stroke="#8a4a24" stroke-width="1.4" opacity="0.8"/><path d="M12,-4 L18,-10 M22,-3 L28,-9 M12,4 L18,10 M22,3 L28,9" stroke="#8a4a24" stroke-width="1" opacity="0.7"/></g><circle cx="60" cy="70" r="7" fill="#c9972f"/><circle cx="130" cy="90" r="5" fill="#c47a3a"/><circle cx="40" cy="100" r="5.5" fill="#eccf82"/><circle cx="170" cy="60" r="6" fill="#c47a3a"/></g><g transform="translate(6,1578) scale(1,-1)"><path d="M4,170 C40,120 90,70 170,30" fill="none" stroke="#8a4a24" stroke-width="5" stroke-linecap="round"/><g transform="translate(30,130) rotate(-40) scale(1.15)"><path d="M0,0 C14,-8 28,-6 40,0 C28,6 14,8 0,0 Z" fill="#a85f2e"/><path d="M0,0 L40,0" stroke="#8a4a24" stroke-width="1.4" opacity="0.8"/><path d="M12,-4 L18,-10 M22,-3 L28,-9 M12,4 L18,10 M22,3 L28,9" stroke="#8a4a24" stroke-width="1" opacity="0.7"/></g><g transform="translate(70,92) rotate(35) scale(1.15)"><path d="M0,0 C14,-8 28,-6 40,0 C28,6 14,8 0,0 Z" fill="#a85f2e"/><path d="M0,0 L40,0" stroke="#8a4a24" stroke-width="1.4" opacity="0.8"/><path d="M12,-4 L18,-10 M22,-3 L28,-9 M12,4 L18,10 M22,3 L28,9" stroke="#8a4a24" stroke-width="1" opacity="0.7"/></g><g transform="translate(115,58) rotate(-45) scale(1.15)"><path d="M0,0 C14,-8 28,-6 40,0 C28,6 14,8 0,0 Z" fill="#d4924a"/><path d="M0,0 L40,0" stroke="#8a4a24" stroke-width="1.4" opacity="0.8"/><path d="M12,-4 L18,-10 M22,-3 L28,-9 M12,4 L18,10 M22,3 L28,9" stroke="#8a4a24" stroke-width="1" opacity="0.7"/></g><g transform="translate(155,34) rotate(30) scale(1.15)"><path d="M0,0 C14,-8 28,-6 40,0 C28,6 14,8 0,0 Z" fill="#d4924a"/><path d="M0,0 L40,0" stroke="#8a4a24" stroke-width="1.4" opacity="0.8"/><path d="M12,-4 L18,-10 M22,-3 L28,-9 M12,4 L18,10 M22,3 L28,9" stroke="#8a4a24" stroke-width="1" opacity="0.7"/></g><g transform="translate(48,148) rotate(50) scale(1.15)"><path d="M0,0 C14,-8 28,-6 40,0 C28,6 14,8 0,0 Z" fill="#a85f2e"/><path d="M0,0 L40,0" stroke="#8a4a24" stroke-width="1.4" opacity="0.8"/><path d="M12,-4 L18,-10 M22,-3 L28,-9 M12,4 L18,10 M22,3 L28,9" stroke="#8a4a24" stroke-width="1" opacity="0.7"/></g><g transform="translate(95,112) rotate(-30) scale(1.15)"><path d="M0,0 C14,-8 28,-6 40,0 C28,6 14,8 0,0 Z" fill="#d4924a"/><path d="M0,0 L40,0" stroke="#8a4a24" stroke-width="1.4" opacity="0.8"/><path d="M12,-4 L18,-10 M22,-3 L28,-9 M12,4 L18,10 M22,3 L28,9" stroke="#8a4a24" stroke-width="1" opacity="0.7"/></g><circle cx="60" cy="70" r="7" fill="#c9972f"/><circle cx="130" cy="90" r="5" fill="#c47a3a"/><circle cx="40" cy="100" r="5.5" fill="#eccf82"/><circle cx="170" cy="60" r="6" fill="#c47a3a"/></g><g transform="translate(1218,1578) scale(-1,-1)"><path d="M4,170 C40,120 90,70 170,30" fill="none" stroke="#8a4a24" stroke-width="5" stroke-linecap="round"/><g transform="translate(30,130) rotate(-40) scale(1.15)"><path d="M0,0 C14,-8 28,-6 40,0 C28,6 14,8 0,0 Z" fill="#a85f2e"/><path d="M0,0 L40,0" stroke="#8a4a24" stroke-width="1.4" opacity="0.8"/><path d="M12,-4 L18,-10 M22,-3 L28,-9 M12,4 L18,10 M22,3 L28,9" stroke="#8a4a24" stroke-width="1" opacity="0.7"/></g><g transform="translate(70,92) rotate(35) scale(1.15)"><path d="M0,0 C14,-8 28,-6 40,0 C28,6 14,8 0,0 Z" fill="#a85f2e"/><path d="M0,0 L40,0" stroke="#8a4a24" stroke-width="1.4" opacity="0.8"/><path d="M12,-4 L18,-10 M22,-3 L28,-9 M12,4 L18,10 M22,3 L28,9" stroke="#8a4a24" stroke-width="1" opacity="0.7"/></g><g transform="translate(115,58) rotate(-45) scale(1.15)"><path d="M0,0 C14,-8 28,-6 40,0 C28,6 14,8 0,0 Z" fill="#d4924a"/><path d="M0,0 L40,0" stroke="#8a4a24" stroke-width="1.4" opacity="0.8"/><path d="M12,-4 L18,-10 M22,-3 L28,-9 M12,4 L18,10 M22,3 L28,9" stroke="#8a4a24" stroke-width="1" opacity="0.7"/></g><g transform="translate(155,34) rotate(30) scale(1.15)"><path d="M0,0 C14,-8 28,-6 40,0 C28,6 14,8 0,0 Z" fill="#d4924a"/><path d="M0,0 L40,0" stroke="#8a4a24" stroke-width="1.4" opacity="0.8"/><path d="M12,-4 L18,-10 M22,-3 L28,-9 M12,4 L18,10 M22,3 L28,9" stroke="#8a4a24" stroke-width="1" opacity="0.7"/></g><g transform="translate(48,148) rotate(50) scale(1.15)"><path d="M0,0 C14,-8 28,-6 40,0 C28,6 14,8 0,0 Z" fill="#a85f2e"/><path d="M0,0 L40,0" stroke="#8a4a24" stroke-width="1.4" opacity="0.8"/><path d="M12,-4 L18,-10 M22,-3 L28,-9 M12,4 L18,10 M22,3 L28,9" stroke="#8a4a24" stroke-width="1" opacity="0.7"/></g><g transform="translate(95,112) rotate(-30) scale(1.15)"><path d="M0,0 C14,-8 28,-6 40,0 C28,6 14,8 0,0 Z" fill="#d4924a"/><path d="M0,0 L40,0" stroke="#8a4a24" stroke-width="1.4" opacity="0.8"/><path d="M12,-4 L18,-10 M22,-3 L28,-9 M12,4 L18,10 M22,3 L28,9" stroke="#8a4a24" stroke-width="1" opacity="0.7"/></g><circle cx="60" cy="70" r="7" fill="#c9972f"/><circle cx="130" cy="90" r="5" fill="#c47a3a"/><circle cx="40" cy="100" r="5.5" fill="#eccf82"/><circle cx="170" cy="60" r="6" fill="#c47a3a"/></g><g transform="translate(1140,1440) rotate(-40) scale(1.4)"><path d="M0,0 C14,-8 28,-6 40,0 C28,6 14,8 0,0 Z" fill="#d4924a"/><path d="M0,0 L40,0" stroke="#8a4a24" stroke-width="1.4" opacity="0.8"/><path d="M12,-4 L18,-10 M22,-3 L28,-9 M12,4 L18,10 M22,3 L28,9" stroke="#8a4a24" stroke-width="1" opacity="0.7"/></g><g transform="translate(1080,1490) rotate(20) scale(1.2)"><path d="M0,0 C14,-8 28,-6 40,0 C28,6 14,8 0,0 Z" fill="#a85f2e"/><path d="M0,0 L40,0" stroke="#8a5a1f" stroke-width="1.4" opacity="0.8"/><path d="M12,-4 L18,-10 M22,-3 L28,-9 M12,4 L18,10 M22,3 L28,9" stroke="#8a5a1f" stroke-width="1" opacity="0.7"/></g><g transform="translate(1170,1380) rotate(160) scale(1.1)"><path d="M0,0 C14,-8 28,-6 40,0 C28,6 14,8 0,0 Z" fill="#d4924a"/><path d="M0,0 L40,0" stroke="#8a4a24" stroke-width="1.4" opacity="0.8"/><path d="M12,-4 L18,-10 M22,-3 L28,-9 M12,4 L18,10 M22,3 L28,9" stroke="#8a4a24" stroke-width="1" opacity="0.7"/></g><g transform="translate(70,792) rotate(-20) scale(1.2)"><path d="M0,0 C14,-8 28,-6 40,0 C28,6 14,8 0,0 Z" fill="#a85f2e"/><path d="M0,0 L40,0" stroke="#8a5a1f" stroke-width="1.4" opacity="0.8"/><path d="M12,-4 L18,-10 M22,-3 L28,-9 M12,4 L18,10 M22,3 L28,9" stroke="#8a5a1f" stroke-width="1" opacity="0.7"/></g><g transform="translate(1140,792) rotate(160) scale(1.2)"><path d="M0,0 C14,-8 28,-6 40,0 C28,6 14,8 0,0 Z" fill="#d4924a"/><path d="M0,0 L40,0" stroke="#8a5a1f" stroke-width="1.4" opacity="0.8"/><path d="M12,-4 L18,-10 M22,-3 L28,-9 M12,4 L18,10 M22,3 L28,9" stroke="#8a5a1f" stroke-width="1" opacity="0.7"/></g><path d="M230,278 Q612,150 994,278" fill="none" stroke="#c9972f" stroke-width="2.5" opacity="0.55"/><path d="M252,266 Q612,166 972,266" fill="none" stroke="#8a5a1f" stroke-width="1.2" opacity="0.4"/><circle cx="612" cy="194" r="7" fill="#c9972f" opacity="0.75"/><circle cx="612" cy="194" r="13" fill="none" stroke="#8a5a1f" stroke-width="1.5" opacity="0.5"/><path d="M120,290 H752" stroke="#c9972f" stroke-width="1.4" opacity="0.55"/><circle cx="120" cy="290" r="4" fill="#c9972f" opacity="0.7"/><circle cx="752" cy="290" r="4" fill="#c9972f" opacity="0.7"/><path d="M120,1436 H752" stroke="#8a5a1f" stroke-width="1.2" opacity="0.4"/><g transform="translate(612,1462)" opacity="0.7"><circle r="6" fill="#c9972f"/><circle r="12" fill="none" stroke="#8a5a1f" stroke-width="1.4"/><line x1="-46" y1="0" x2="-18" y2="0" stroke="#8a5a1f" stroke-width="1.8"/><line x1="18" y1="0" x2="46" y2="0" stroke="#8a5a1f" stroke-width="1.8"/></g><rect x="770" y="298" width="340" height="434" rx="6" fill="none" stroke="#c9972f" stroke-width="4"/><rect x="782" y="310" width="316" height="410" rx="2" fill="none" stroke="#8a5a1f" stroke-width="1.6" opacity="0.8"/><circle cx="770" cy="298" r="7" fill="#c9972f"/><circle cx="1110" cy="298" r="7" fill="#c9972f"/><circle cx="770" cy="732" r="7" fill="#c9972f"/><circle cx="1110" cy="732" r="7" fill="#c9972f"/><path d="M770,700 C860,750 990,758 1110,728" fill="none" stroke="#c47a3a" stroke-width="3.5" opacity="0.75"/>
</svg>
