<svg xmlns="http://www.w3.org/2000/svg" width="1224" height="1584" viewBox="0 0 1224 1584">
<defs><linearGradient id="bgt171" x1="0" y1="0" x2="0.35" y2="1"><stop offset="0" stop-color="#fbf7ff"/><stop offset="1" stop-color="#f0e8fa"/></linearGradient><linearGradient id="bdt171" x1="0" y1="0" x2="1" y2="1"><stop offset="0" stop-color="#e0d0f0" stop-opacity="0.95"/><stop offset="1" stop-color="#e0d0f0" stop-opacity="0.55"/></linearGradient><linearGradient id="lv171" x1="0" y1="0" x2="1" y2="1"><stop offset="0" stop-color="#9b7bb8"/><stop offset="1" stop-color="#c4a8d8"/></linearGradient></defs>
<rect width="1224" height="1584" fill="url(#bgt171)"/><path d="M0,0 C200,80 380,20 612,70 C844,120 1020,40 1224,90 L1224,0 Z" fill="url(#lv171)" opacity="0.35"/><path d="M0,1584 C220,1500 400,1560 612,1510 C824,1460 1020,1540 1224,1490 L1224,1584 Z" fill="url(#lv171)" opacity="0.4"/><path d="M0,1500 C240,1440 420,1520 640,1470 C860,1420 1040,1500 1224,1450" fill="none" stroke="#9b7bb8" stroke-width="4" opacity="0.55"/><path d="M0,1450 C240,1390 420,1470 640,1420 C860,1370 1040,1450 1224,1400" fill="none" stroke="#6a4a8a" stroke-width="2" opacity="0.4"/><rect x="0" y="0" width="1224" height="96" fill="url(#bdt171)"/><rect x="0" y="1488" width="1224" height="96" fill="url(#bdt171)" transform="rotate(180 612 1536)"/><rect x="0" y="0" width="96" height="1584" fill="url(#bdt171)"/><rect x="1128" y="0" width="96" height="1584" fill="url(#bdt171)" transform="rotate(180 1176 792)"/><rect x="24" y="24" width="1176" height="1536" fill="none" stroke="#9b7bb8" stroke-width="4"/><rect x="48" y="48" width="1128" height="1488" fill="none" stroke="#c9a45c" stroke-width="1.6" opacity="0.85"/><g transform="translate(6,6)"><ellipse cx="52.0" cy="48.2" rx="19.8" ry="13.0" fill="#c4a8d8" transform="rotate(0 52.0 48.2)"/><ellipse cx="70.8" cy="61.9" rx="19.8" ry="13.0" fill="#c4a8d8" transform="rotate(72 70.8 61.9)"/><ellipse cx="63.6" cy="84.0" rx="19.8" ry="13.0" fill="#c4a8d8" transform="rotate(144 63.6 84.0)"/><ellipse cx="40.4" cy="84.0" rx="19.8" ry="13.0" fill="#c4a8d8" transform="rotate(216 40.4 84.0)"/><ellipse cx="33.2" cy="61.9" rx="19.8" ry="13.0" fill="#c4a8d8" transform="rotate(288 33.2 61.9)"/><circle cx="52" cy="68" r="10.8" fill="#c9a45c"/><circle cx="52" cy="68" r="5.0" fill="#6a4a8a"/><ellipse cx="112.0" cy="18.6" rx="15.4" ry="10.1" fill="#9b7bb8" transform="rotate(0 112.0 18.6)"/><ellipse cx="126.6" cy="29.2" rx="15.4" ry="10.1" fill="#9b7bb8" transform="rotate(72 126.6 29.2)"/><ellipse cx="121.1" cy="46.5" rx="15.4" ry="10.1" fill="#9b7bb8" transform="rotate(144 121.1 46.5)"/><ellipse cx="102.9" cy="46.5" rx="15.4" ry="10.1" fill="#9b7bb8" transform="rotate(216 102.9 46.5)"/><ellipse cx="97.4" cy="29.2" rx="15.4" ry="10.1" fill="#9b7bb8" transform="rotate(288 97.4 29.2)"/><circle cx="112" cy="34" r="8.4" fill="#c9a45c"/><circle cx="112" cy="34" r="3.9" fill="#c4a8d8"/><ellipse cx="26.0" cy="106.8" rx="13.2" ry="8.6" fill="#6a4a8a" transform="rotate(0 26.0 106.8)"/><ellipse cx="38.6" cy="115.9" rx="13.2" ry="8.6" fill="#6a4a8a" transform="rotate(72 38.6 115.9)"/><ellipse cx="33.8" cy="130.7" rx="13.2" ry="8.6" fill="#6a4a8a" transform="rotate(144 33.8 130.7)"/><ellipse cx="18.2" cy="130.7" rx="13.2" ry="8.6" fill="#6a4a8a" transform="rotate(216 18.2 130.7)"/><ellipse cx="13.4" cy="115.9" rx="13.2" ry="8.6" fill="#6a4a8a" transform="rotate(288 13.4 115.9)"/><circle cx="26" cy="120" r="7.2" fill="#c9a45c"/><circle cx="26" cy="120" r="3.4" fill="#c4a8d8"/><path d="M0,0 Q24.0,-15 48,0 Q24.0,15 0,0" fill="#7a9a72" transform="translate(6,110) rotate(-40)"/><path d="M0,0 Q21.0,-13 42,0 Q21.0,13 0,0" fill="#95b47e" opacity="0.9" transform="translate(48,18) rotate(75)"/><path d="M84,114.4 Q82.2,105.4 84,100 Q85.8,105.4 84,114.4" fill="#c4a8d8"/><path d="M84,113.5 C80,121.6 87,127 83,136" fill="none" stroke="#7a9a72" stroke-width="2.4" stroke-linecap="round"/><circle cx="150" cy="78" r="5" fill="#c4a8d8"/><circle cx="70" cy="150" r="4.5" fill="#9b7bb8"/></g><g transform="translate(1218,6) scale(-1,1)"><ellipse cx="52.0" cy="48.2" rx="19.8" ry="13.0" fill="#c4a8d8" transform="rotate(0 52.0 48.2)"/><ellipse cx="70.8" cy="61.9" rx="19.8" ry="13.0" fill="#c4a8d8" transform="rotate(72 70.8 61.9)"/><ellipse cx="63.6" cy="84.0" rx="19.8" ry="13.0" fill="#c4a8d8" transform="rotate(144 63.6 84.0)"/><ellipse cx="40.4" cy="84.0" rx="19.8" ry="13.0" fill="#c4a8d8" transform="rotate(216 40.4 84.0)"/><ellipse cx="33.2" cy="61.9" rx="19.8" ry="13.0" fill="#c4a8d8" transform="rotate(288 33.2 61.9)"/><circle cx="52" cy="68" r="10.8" fill="#c9a45c"/><circle cx="52" cy="68" r="5.0" fill="#6a4a8a"/><ellipse cx="112.0" cy="18.6" rx="15.4" ry="10.1" fill="#9b7bb8" transform="rotate(0 112.0 18.6)"/><ellipse cx="126.6" cy="29.2" rx="15.4" ry="10.1" fill="#9b7bb8" transform="rotate(72 126.6 29.2)"/><ellipse cx="121.1" cy="46.5" rx="15.4" ry="10.1" fill="#9b7bb8" transform="rotate(144 121.1 46.5)"/><ellipse cx="102.9" cy="46.5" rx="15.4" ry="10.1" fill="#9b7bb8" transform="rotate(216 102.9 46.5)"/><ellipse cx="97.4" cy="29.2" rx="15.4" ry="10.1" fill="#9b7bb8" transform="rotate(288 97.4 29.2)"/><circle cx="112" cy="34" r="8.4" fill="#c9a45c"/><circle cx="112" cy="34" r="3.9" fill="#c4a8d8"/><ellipse cx="26.0" cy="106.8" rx="13.2" ry="8.6" fill="#6a4a8a" transform="rotate(0 26.0 106.8)"/><ellipse cx="38.6" cy="115.9" rx="13.2" ry="8.6" fill="#6a4a8a" transform="rotate(72 38.6 115.9)"/><ellipse cx="33.8" cy="130.7" rx="13.2" ry="8.6" fill="#6a4a8a" transform="rotate(144 33.8 130.7)"/><ellipse cx="18.2" cy="130.7" rx="13.2" ry="8.6" fill="#6a4a8a" transform="rotate(216 18.2 130.7)"/><ellipse cx="13.4" cy="115.9" rx="13.2" ry="8.6" fill="#6a4a8a" transform="rotate(288 13.4 115.9)"/><circle cx="26" cy="120" r="7.2" fill="#c9a45c"/><circle cx="26" cy="120" r="3.4" fill="#c4a8d8"/><path d="M0,0 Q24.0,-15 48,0 Q24.0,15 0,0" fill="#7a9a72" transform="translate(6,110) rotate(-40)"/><path d="M0,0 Q21.0,-13 42,0 Q21.0,13 0,0" fill="#95b47e" opacity="0.9" transform="translate(48,18) rotate(75)"/><path d="M84,114.4 Q82.2,105.4 84,100 Q85.8,105.4 84,114.4" fill="#c4a8d8"/><path d="M84,113.5 C80,121.6 87,127 83,136" fill="none" stroke="#7a9a72" stroke-width="2.4" stroke-linecap="round"/><circle cx="150" cy="78" r="5" fill="#c4a8d8"/><circle cx="70" cy="150" r="4.5" fill="#9b7bb8"/></g><g transform="translate(6,1578) scale(1,-1)"><ellipse cx="52.0" cy="48.2" rx="19.8" ry="13.0" fill="#c4a8d8" transform="rotate(0 52.0 48.2)"/><ellipse cx="70.8" cy="61.9" rx="19.8" ry="13.0" fill="#c4a8d8" transform="rotate(72 70.8 61.9)"/><ellipse cx="63.6" cy="84.0" rx="19.8" ry="13.0" fill="#c4a8d8" transform="rotate(144 63.6 84.0)"/><ellipse cx="40.4" cy="84.0" rx="19.8" ry="13.0" fill="#c4a8d8" transform="rotate(216 40.4 84.0)"/><ellipse cx="33.2" cy="61.9" rx="19.8" ry="13.0" fill="#c4a8d8" transform="rotate(288 33.2 61.9)"/><circle cx="52" cy="68" r="10.8" fill="#c9a45c"/><circle cx="52" cy="68" r="5.0" fill="#6a4a8a"/><ellipse cx="112.0" cy="18.6" rx="15.4" ry="10.1" fill="#9b7bb8" transform="rotate(0 112.0 18.6)"/><ellipse cx="126.6" cy="29.2" rx="15.4" ry="10.1" fill="#9b7bb8" transform="rotate(72 126.6 29.2)"/><ellipse cx="121.1" cy="46.5" rx="15.4" ry="10.1" fill="#9b7bb8" transform="rotate(144 121.1 46.5)"/><ellipse cx="102.9" cy="46.5" rx="15.4" ry="10.1" fill="#9b7bb8" transform="rotate(216 102.9 46.5)"/><ellipse cx="97.4" cy="29.2" rx="15.4" ry="10.1" fill="#9b7bb8" transform="rotate(288 97.4 29.2)"/><circle cx="112" cy="34" r="8.4" fill="#c9a45c"/><circle cx="112" cy="34" r="3.9" fill="#c4a8d8"/><ellipse cx="26.0" cy="106.8" rx="13.2" ry="8.6" fill="#6a4a8a" transform="rotate(0 26.0 106.8)"/><ellipse cx="38.6" cy="115.9" rx="13.2" ry="8.6" fill="#6a4a8a" transform="rotate(72 38.6 115.9)"/><ellipse cx="33.8" cy="130.7" rx="13.2" ry="8.6" fill="#6a4a8a" transform="rotate(144 33.8 130.7)"/><ellipse cx="18.2" cy="130.7" rx="13.2" ry="8.6" fill="#6a4a8a" transform="rotate(216 18.2 130.7)"/><ellipse cx="13.4" cy="115.9" rx="13.2" ry="8.6" fill="#6a4a8a" transform="rotate(288 13.4 115.9)"/><circle cx="26" cy="120" r="7.2" fill="#c9a45c"/><circle cx="26" cy="120" r="3.4" fill="#c4a8d8"/><path d="M0,0 Q24.0,-15 48,0 Q24.0,15 0,0" fill="#7a9a72" transform="translate(6,110) rotate(-40)"/><path d="M0,0 Q21.0,-13 42,0 Q21.0,13 0,0" fill="#95b47e" opacity="0.9" transform="translate(48,18) rotate(75)"/><path d="M84,114.4 Q82.2,105.4 84,100 Q85.8,105.4 84,114.4" fill="#c4a8d8"/><path d="M84,113.5 C80,121.6 87,127 83,136" fill="none" stroke="#7a9a72" stroke-width="2.4" stroke-linecap="round"/><circle cx="150" cy="78" r="5" fill="#c4a8d8"/><circle cx="70" cy="150" r="4.5" fill="#9b7bb8"/></g><g transform="translate(1218,1578) scale(-1,-1)"><ellipse cx="52.0" cy="48.2" rx="19.8" ry="13.0" fill="#c4a8d8" transform="rotate(0 52.0 48.2)"/><ellipse cx="70.8" cy="61.9" rx="19.8" ry="13.0" fill="#c4a8d8" transform="rotate(72 70.8 61.9)"/><ellipse cx="63.6" cy="84.0" rx="19.8" ry="13.0" fill="#c4a8d8" transform="rotate(144 63.6 84.0)"/><ellipse cx="40.4" cy="84.0" rx="19.8" ry="13.0" fill="#c4a8d8" transform="rotate(216 40.4 84.0)"/><ellipse cx="33.2" cy="61.9" rx="19.8" ry="13.0" fill="#c4a8d8" transform="rotate(288 33.2 61.9)"/><circle cx="52" cy="68" r="10.8" fill="#c9a45c"/><circle cx="52" cy="68" r="5.0" fill="#6a4a8a"/><ellipse cx="112.0" cy="18.6" rx="15.4" ry="10.1" fill="#9b7bb8" transform="rotate(0 112.0 18.6)"/><ellipse cx="126.6" cy="29.2" rx="15.4" ry="10.1" fill="#9b7bb8" transform="rotate(72 126.6 29.2)"/><ellipse cx="121.1" cy="46.5" rx="15.4" ry="10.1" fill="#9b7bb8" transform="rotate(144 121.1 46.5)"/><ellipse cx="102.9" cy="46.5" rx="15.4" ry="10.1" fill="#9b7bb8" transform="rotate(216 102.9 46.5)"/><ellipse cx="97.4" cy="29.2" rx="15.4" ry="10.1" fill="#9b7bb8" transform="rotate(288 97.4 29.2)"/><circle cx="112" cy="34" r="8.4" fill="#c9a45c"/><circle cx="112" cy="34" r="3.9" fill="#c4a8d8"/><ellipse cx="26.0" cy="106.8" rx="13.2" ry="8.6" fill="#6a4a8a" transform="rotate(0 26.0 106.8)"/><ellipse cx="38.6" cy="115.9" rx="13.2" ry="8.6" fill="#6a4a8a" transform="rotate(72 38.6 115.9)"/><ellipse cx="33.8" cy="130.7" rx="13.2" ry="8.6" fill="#6a4a8a" transform="rotate(144 33.8 130.7)"/><ellipse cx="18.2" cy="130.7" rx="13.2" ry="8.6" fill="#6a4a8a" transform="rotate(216 18.2 130.7)"/><ellipse cx="13.4" cy="115.9" rx="13.2" ry="8.6" fill="#6a4a8a" transform="rotate(288 13.4 115.9)"/><circle cx="26" cy="120" r="7.2" fill="#c9a45c"/><circle cx="26" cy="120" r="3.4" fill="#c4a8d8"/><path d="M0,0 Q24.0,-15 48,0 Q24.0,15 0,0" fill="#7a9a72" transform="translate(6,110) rotate(-40)"/><path d="M0,0 Q21.0,-13 42,0 Q21.0,13 0,0" fill="#95b47e" opacity="0.9" transform="translate(48,18) rotate(75)"/><path d="M84,114.4 Q82.2,105.4 84,100 Q85.8,105.4 84,114.4" fill="#c4a8d8"/><path d="M84,113.5 C80,121.6 87,127 83,136" fill="none" stroke="#7a9a72" stroke-width="2.4" stroke-linecap="round"/><circle cx="150" cy="78" r="5" fill="#c4a8d8"/><circle cx="70" cy="150" r="4.5" fill="#9b7bb8"/></g><ellipse cx="1058.0" cy="1390.0" rx="22.0" ry="14.4" fill="#c4a8d8" transform="rotate(0 1058.0 1390.0)"/><ellipse cx="1078.9" cy="1405.2" rx="22.0" ry="14.4" fill="#c4a8d8" transform="rotate(72 1078.9 1405.2)"/><ellipse cx="1070.9" cy="1429.8" rx="22.0" ry="14.4" fill="#c4a8d8" transform="rotate(144 1070.9 1429.8)"/><ellipse cx="1045.1" cy="1429.8" rx="22.0" ry="14.4" fill="#c4a8d8" transform="rotate(216 1045.1 1429.8)"/><ellipse cx="1037.1" cy="1405.2" rx="22.0" ry="14.4" fill="#c4a8d8" transform="rotate(288 1037.1 1405.2)"/><circle cx="1058" cy="1412" r="12.0" fill="#c9a45c"/><circle cx="1058" cy="1412" r="5.6" fill="#6a4a8a"/><path d="M0,0 Q27.0,-17 54,0 Q27.0,17 0,0" fill="#7a9a72" transform="translate(998,1470) rotate(-38)"/><ellipse cx="1150.0" cy="1454.6" rx="15.4" ry="10.1" fill="#9b7bb8" transform="rotate(0 1150.0 1454.6)"/><ellipse cx="1164.6" cy="1465.2" rx="15.4" ry="10.1" fill="#9b7bb8" transform="rotate(72 1164.6 1465.2)"/><ellipse cx="1159.1" cy="1482.5" rx="15.4" ry="10.1" fill="#9b7bb8" transform="rotate(144 1159.1 1482.5)"/><ellipse cx="1140.9" cy="1482.5" rx="15.4" ry="10.1" fill="#9b7bb8" transform="rotate(216 1140.9 1482.5)"/><ellipse cx="1135.4" cy="1465.2" rx="15.4" ry="10.1" fill="#9b7bb8" transform="rotate(288 1135.4 1465.2)"/><circle cx="1150" cy="1470" r="8.4" fill="#c9a45c"/><circle cx="1150" cy="1470" r="3.9" fill="#c4a8d8"/><path d="M230,278 Q612,150 994,278" fill="none" stroke="#c9a45c" stroke-width="2.5" opacity="0.55"/><path d="M252,266 Q612,166 972,266" fill="none" stroke="#7a6a9a" stroke-width="1.2" opacity="0.4"/><circle cx="612" cy="194" r="7" fill="#c9a45c" opacity="0.75"/><circle cx="612" cy="194" r="13" fill="none" stroke="#7a6a9a" stroke-width="1.5" opacity="0.5"/><path d="M120,290 H752" stroke="#9b7bb8" stroke-width="1.4" opacity="0.55"/><circle cx="120" cy="290" r="4" fill="#9b7bb8" opacity="0.7"/><circle cx="752" cy="290" r="4" fill="#9b7bb8" opacity="0.7"/><path d="M120,1436 H752" stroke="#7a6a9a" stroke-width="1.2" opacity="0.4"/><g transform="translate(612,1462)" opacity="0.7"><circle r="6" fill="#9b7bb8"/><circle r="12" fill="none" stroke="#7a6a9a" stroke-width="1.4"/><line x1="-46" y1="0" x2="-18" y2="0" stroke="#7a6a9a" stroke-width="1.8"/><line x1="18" y1="0" x2="46" y2="0" stroke="#7a6a9a" stroke-width="1.8"/></g><rect x="770" y="298" width="340" height="434" rx="8" fill="none" stroke="#c9a45c" stroke-width="4"/><rect x="782" y="310" width="316" height="410" rx="4" fill="none" stroke="#6a4a8a" stroke-width="1.6" opacity="0.8"/><circle cx="770" cy="298" r="7" fill="#c9a45c"/><circle cx="1110" cy="298" r="7" fill="#c9a45c"/><circle cx="770" cy="732" r="7" fill="#c9a45c"/><circle cx="1110" cy="732" r="7" fill="#c9a45c"/>
</svg>
