<svg xmlns="http://www.w3.org/2000/svg" width="1224" height="1584" viewBox="0 0 1224 1584">
<defs>
<linearGradient id="bg60" x1="0" y1="0" x2="0.6" y2="1">
<stop offset="0" stop-color="#ffffff"/>
<stop offset="0.5" stop-color="#f7fafd"/>
<stop offset="1" stop-color="#eef4fa"/>
</linearGradient>
<linearGradient id="pl60" x1="0" y1="0" x2="0" y2="1">
<stop offset="0" stop-color="#ffffff"/>
<stop offset="0.5" stop-color="#f2f7fb"/>
<stop offset="1" stop-color="#e6eef7"/>
</linearGradient>
<linearGradient id="sk60" x1="0" y1="0" x2="1" y2="1">
<stop offset="0" stop-color="#eaf6ff"/>
<stop offset="0.5" stop-color="#cfe6f6"/>
<stop offset="1" stop-color="#b3d4ec"/>
</linearGradient>
<linearGradient id="sv60g" x1="0" y1="0" x2="1" y2="1">
<stop offset="0" stop-color="#eef3f8"/>
<stop offset="0.4" stop-color="#b7c4d2"/>
<stop offset="0.7" stop-color="#d7e0ea"/>
<stop offset="1" stop-color="#93a7bb"/>
</linearGradient>
<radialGradient id="gl60" cx="0.5" cy="0.5" r="0.55">
<stop offset="0" stop-color="#ffffff" stop-opacity="0.95"/>
<stop offset="1" stop-color="#ffffff" stop-opacity="0"/>
</radialGradient>
<filter id="sh60" x="-40%" y="-40%" width="180%" height="180%">
<feDropShadow dx="1.6" dy="2.6" stdDeviation="1.6" flood-color="#8fa5bb" flood-opacity="0.5"/>
</filter>
<filter id="bl60" x="-50%" y="-50%" width="200%" height="200%"><feGaussianBlur stdDeviation="5"/></filter>
<filter id="gr60"><feTurbulence type="fractalNoise" baseFrequency="0.85" numOctaves="3" stitchTiles="stitch"/><feColorMatrix type="saturate" values="0"/></filter>
<pattern id="jl60" width="18" height="18" patternUnits="userSpaceOnUse">
<path d="M0,18 L18,0 M-4,4 L4,-4 M14,22 L22,14" stroke="#b7c4d2" stroke-width="0.8" opacity="0.55"/>
<path d="M0,0 L18,18 M-4,14 L4,22 M14,-4 L22,4" stroke="#b7c4d2" stroke-width="0.8" opacity="0.55"/>
<circle cx="9" cy="9" r="1.5" fill="#cfe6f6"/>
</pattern>
<g id="fl60">
<g fill="#ffffff" stroke="#b7c4d2" stroke-width="1.4">
<ellipse rx="8" ry="22"/>
<ellipse rx="8" ry="22" transform="rotate(60)"/>
<ellipse rx="8" ry="22" transform="rotate(120)"/>
</g>
<g fill="#f7fafd" stroke="#c9d5e2" stroke-width="1.2">
<ellipse rx="6" ry="15" transform="rotate(30)"/>
<ellipse rx="6" ry="15" transform="rotate(90)"/>
<ellipse rx="6" ry="15" transform="rotate(150)"/>
</g>
<circle r="6" fill="#e8f3fc" stroke="#aebdda" stroke-width="1.4"/>
<circle r="2.4" fill="#ffffff"/>
</g>
<g id="ey60">
<circle r="7" fill="#ffffff" stroke="#b7c4d2" stroke-width="1.3"/>
<circle r="4.2" fill="#dceefb" stroke="#c9d5e2" stroke-width="1"/>
<circle r="1.8" fill="#f7fcff"/>
</g>
<pattern id="hm60" width="26" height="13" patternUnits="userSpaceOnUse">
<path d="M0,0 C3,16 23,16 26,0" fill="#ffffff" stroke="#aebdda" stroke-width="1.2"/>
<circle cx="13" cy="8" r="2.2" fill="#cfe6f6" stroke="#b7c4d2" stroke-width="0.8"/>
</pattern>
<pattern id="fw60" width="129" height="96" patternUnits="userSpaceOnUse" patternTransform="translate(96 0)">
<use href="#fl60" transform="translate(64.5 50) scale(0.85)" filter="url(#sh60)"/>
<use href="#ey60" transform="translate(24 26)" filter="url(#sh60)"/>
<use href="#ey60" transform="translate(105 70)" filter="url(#sh60)"/>
<path d="M14,74 C22,66 32,66 40,72 C32,76 22,78 14,74 Z M89,22 C97,14 107,14 115,20 C107,24 97,26 89,22 Z" fill="#ffffff" stroke="#b7c4d2" stroke-width="1.3" filter="url(#sh60)"/>
<path d="M46,72 C54,68 60,70 64,76 M85,20 C77,24 71,26 66,22" fill="none" stroke="#aebdda" stroke-width="1.3"/>
</pattern>
<pattern id="sv60p" width="96" height="116" patternUnits="userSpaceOnUse" patternTransform="translate(0 96)">
<path d="M48,0 C60,12 60,24 48,36 C36,48 36,60 48,72 C60,84 60,96 48,108 L48,116" fill="none" stroke="#b7c4d2" stroke-width="1.6"/>
<use href="#fl60" transform="translate(48 58) scale(0.55)" filter="url(#sh60)"/>
<use href="#ey60" transform="translate(48 18)" filter="url(#sh60)"/>
<use href="#ey60" transform="translate(48 98)" filter="url(#sh60)"/>
<path d="M28,36 C34,30 42,30 46,34 C40,38 33,39 28,36 Z M68,80 C74,74 82,74 86,78 C80,82 73,83 68,80 Z" fill="#ffffff" stroke="#b7c4d2" stroke-width="1.2" filter="url(#sh60)"/>
</pattern>
<g id="bn60">
<rect x="96" y="0" width="1032" height="96" fill="url(#pl60)"/>
<rect x="96" y="0" width="1032" height="96" fill="url(#jl60)"/>
<rect x="96" y="0" width="1032" height="96" fill="url(#fw60)"/>
<rect x="96" y="0" width="1032" height="13" fill="url(#hm60)"/>
<rect x="96" y="83" width="1032" height="13" fill="url(#hm60)" transform="rotate(180 612 89.5)"/>
<path d="M96,14 H1128 M96,82 H1128" stroke="#ffffff" stroke-width="3"/>
<path d="M96,16 H1128 M96,80 H1128" stroke="#aebdda" stroke-width="1"/>
</g>
<g id="k60">
<path d="M2,2 H94 V17 C60,21 34,47 30,78 C29,86 31,91 35,94 H2 Z" fill="url(#pl60)" stroke="url(#sv60g)" stroke-width="2.4"/>
<path d="M2,2 H94 V17 C60,21 34,47 30,78 C29,86 31,91 35,94 H2 Z" fill="url(#jl60)" opacity="0.9"/>
<circle cx="46" cy="46" r="44" fill="url(#gl60)"/>
<use href="#fl60" transform="translate(46 46) scale(1.55)" filter="url(#sh60)"/>
<use href="#ey60" transform="translate(78 22)" filter="url(#sh60)"/>
<use href="#ey60" transform="translate(22 78)" filter="url(#sh60)"/>
<path d="M12,10 H84 C54,16 34,42 30,70 C29,78 31,84 35,86 H12 Z" fill="none" stroke="#aebdda" stroke-width="1.4" stroke-dasharray="5 5"/>
<path d="M84,60 C88,70 88,82 84,90 M60,84 C70,88 82,88 90,84" fill="none" stroke="#b7c4d2" stroke-width="1.4"/>
</g>
</defs>
<rect width="1224" height="1584" fill="url(#bg60)"/>
<path fill-rule="evenodd" fill="#f4f8fc" opacity="0.9" d="M0,0 H1224 V1584 H0 Z M96,96 H1128 V1488 H96 Z"/>
<use href="#bn60"/>
<use href="#bn60" transform="rotate(180 612 1536)"/>
<rect x="0" y="96" width="96" height="1392" fill="url(#pl60)"/>
<rect x="0" y="96" width="96" height="1392" fill="url(#jl60)"/>
<rect x="0" y="96" width="96" height="1392" fill="url(#sv60p)"/>
<rect x="1128" y="96" width="96" height="1392" fill="url(#pl60)"/>
<rect x="1128" y="96" width="96" height="1392" fill="url(#jl60)"/>
<rect x="1128" y="96" width="96" height="1392" fill="url(#sv60p)"/>
<g>
<path d="M6,96 V1488 M90,96 V1488 M1134,96 V1488 M1218,96 V1488" stroke="#ffffff" stroke-width="3.4"/>
<path d="M8,96 V1488 M92,96 V1488 M1136,96 V1488 M1220,96 V1488" stroke="#aebdda" stroke-width="1"/>
<path d="M110,4 H1114 M110,92 H1114 M110,1492 H1114 M110,1580 H1114" stroke="#b7c4d2" stroke-width="2" stroke-dasharray="0.1 10" stroke-linecap="round"/>
</g>
<use href="#k60"/>
<use href="#k60" transform="translate(1224 0) scale(-1 1)"/>
<use href="#k60" transform="translate(0 1584) scale(1 -1)"/>
<use href="#k60" transform="translate(1224 1584) scale(-1 -1)"/>
<rect x="7" y="7" width="1210" height="1570" fill="none" stroke="#ffffff" stroke-width="9" filter="url(#bl60)"/>
<rect x="7" y="7" width="1210" height="1570" fill="none" stroke="url(#sv60g)" stroke-width="8"/>
<rect x="25" y="25" width="1174" height="1534" fill="none" stroke="url(#sk60)" stroke-width="3"/>
<rect x="36" y="36" width="1152" height="1512" fill="none" stroke="#93a7bb" stroke-width="1.4" stroke-dasharray="9 7"/>
<rect x="87" y="87" width="1050" height="1410" fill="none" stroke="#ffffff" stroke-width="3"/>
<rect x="90" y="90" width="1044" height="1404" fill="none" stroke="url(#sv60g)" stroke-width="1.4"/>
<g opacity="0.06">
<use href="#fl60" transform="translate(612 1180) scale(5)"/>
<use href="#fl60" transform="translate(360 1180) scale(2.2)"/>
<use href="#fl60" transform="translate(864 1180) scale(2.2)"/>
</g>
<rect width="1224" height="1584" filter="url(#gr60)" opacity="0.04"/>
</svg>
