<svg xmlns="http://www.w3.org/2000/svg" width="1224" height="1584" viewBox="0 0 1224 1584">
<defs>
<linearGradient id="gd65" x1="0" y1="0" x2="1" y2="1">
<stop offset="0" stop-color="#f3cf8e"/>
<stop offset="0.5" stop-color="#c07a28"/>
<stop offset="1" stop-color="#f3cf8e"/>
</linearGradient>
<linearGradient id="fm65" x1="0" y1="1" x2="0" y2="0">
<stop offset="0" stop-color="#ff6a00"/>
<stop offset="0.4" stop-color="#ff9d2e"/>
<stop offset="0.75" stop-color="#ffd76a"/>
<stop offset="1" stop-color="#fff6c8"/>
</linearGradient>
<linearGradient id="cp65" x1="0" y1="0" x2="1" y2="1">
<stop offset="0" stop-color="#f0c090"/>
<stop offset="0.35" stop-color="#b06a2c"/>
<stop offset="0.7" stop-color="#7e4218"/>
<stop offset="1" stop-color="#e0a468"/>
</linearGradient>
<radialGradient id="ag65" cx="0.5" cy="0.5" r="0.5">
<stop offset="0" stop-color="#ffb347" stop-opacity="0.75"/>
<stop offset="0.6" stop-color="#ff8c2a" stop-opacity="0.3"/>
<stop offset="1" stop-color="#ff8c2a" stop-opacity="0"/>
</radialGradient>
<filter id="gw65" x="-70%" y="-70%" width="240%" height="240%">
<feGaussianBlur stdDeviation="6" result="b"/>
<feMerge><feMergeNode in="b"/><feMergeNode in="b"/><feMergeNode in="SourceGraphic"/></feMerge>
</filter>
<filter id="gr65" x="0" y="0" width="100%" height="100%">
<feTurbulence type="fractalNoise" baseFrequency="0.85" numOctaves="3" stitchTiles="stitch"/>
<feColorMatrix type="saturate" values="0"/>
<feComponentTransfer><feFuncA type="table" tableValues="0 0.05"/></feComponentTransfer>
</filter>
<g id="fl65">
<path d="M0 0 C-9 -13 -10 -28 -3 -44 C-1 -36 3 -40 4 -50 C10 -38 13 -26 9 -15 C7 -8 5 -3 0 0Z" fill="url(#fm65)"/>
<path d="M0 -2 C-4 -9 -4 -18 -1 -26 C1 -20 3 -24 4 -30 C6 -21 6 -12 4 -6 C3 -3 2 -1 0 -2Z" fill="#fff3c0" opacity="0.85"/>
</g>
<g id="dy65">
<path d="M-25 -3 Q0 21 25 -3 Z" fill="url(#cp65)"/>
<ellipse cx="0" cy="-3" rx="25" ry="5.5" fill="#e2a765"/>
<ellipse cx="0" cy="-3" rx="17" ry="3.5" fill="#7e4218"/>
<rect x="-2.4" y="-14" width="4.8" height="12" rx="2" fill="#3a2410"/>
</g>
<g id="sp65">
<path d="M0 -9 L7 0 L0 9 L-7 0Z" fill="url(#gd65)"/>
<path d="M0 -4 L3.4 0 L0 4 L-3.4 0Z" fill="#c2410c"/>
</g>
<g id="kd65">
<path d="M-34 -34 L34 -34 L34 34 L-34 34 Z" fill="none" stroke="url(#gd65)" stroke-width="5" transform="rotate(45)"/>
<path d="M-22 -22 L22 -22 L22 22 L-22 22 Z" fill="none" stroke="#b06a2c" stroke-width="2.4" transform="rotate(45)"/>
</g>
</defs>
<rect width="1224" height="1584" fill="#fff8ef"/>
<rect x="10" y="10" width="1204" height="1564" fill="none" stroke="url(#gd65)" stroke-width="5"/>
<rect x="30" y="30" width="1164" height="1524" fill="none" stroke="#8a3508" stroke-width="1.8"/>
<rect x="46" y="46" width="1132" height="1492" fill="none" stroke="url(#gd65)" stroke-width="2"/>
<rect x="88" y="88" width="1048" height="1408" fill="none" stroke="#c07a28" stroke-width="1.1" stroke-dasharray="12 9"/>
<g fill="none" stroke-linecap="round">
<path d="M30 60 C160 90 300 34 440 64 C560 90 700 40 840 66 C960 88 1100 40 1194 66" stroke="url(#cp65)" stroke-width="4"/>
<path d="M30 60 C160 90 300 34 440 64 C560 90 700 40 840 66 C960 88 1100 40 1194 66" stroke="#ffd9a0" stroke-width="1.4" opacity="0.8"/>
<path d="M30 30 C160 58 300 6 440 34 C560 58 700 12 840 36 C960 56 1100 10 1194 36" stroke="#c07a28" stroke-width="2" stroke-dasharray="14 10"/>
</g>
<g>
<use href="#sp65" x="140" y="26"/><use href="#sp65" x="360" y="16"/><use href="#sp65" x="560" y="26"/><use href="#sp65" x="760" y="14"/><use href="#sp65" x="960" y="26"/><use href="#sp65" x="1100" y="18"/>
<use href="#sp65" x="90" y="470"/><use href="#sp65" x="70" y="792"/><use href="#sp65" x="90" y="1114"/>
<use href="#sp65" x="1134" y="470"/><use href="#sp65" x="1154" y="792"/><use href="#sp65" x="1134" y="1114"/>
</g>
<g transform="translate(60,62)" filter="url(#gw65)">
<use href="#dy65" transform="translate(0,10) scale(0.72)"/>
<use href="#fl65" transform="translate(0,4) scale(0.72)"/>
</g>
<g transform="translate(1164,62)" filter="url(#gw65)">
<use href="#dy65" transform="translate(0,10) scale(0.72)"/>
<use href="#fl65" transform="translate(0,4) scale(0.72)"/>
</g>
<g transform="translate(60,1520)" filter="url(#gw65)">
<use href="#dy65" transform="translate(0,10) scale(0.72)"/>
<use href="#fl65" transform="translate(0,4) scale(0.72)"/>
</g>
<g transform="translate(1164,1520)" filter="url(#gw65)">
<use href="#dy65" transform="translate(0,10) scale(0.72)"/>
<use href="#fl65" transform="translate(0,4) scale(0.72)"/>
</g>
<g>
<use href="#kd65" x="48" y="48"/>
<use href="#kd65" x="1176" y="48"/>
<use href="#kd65" x="48" y="1536"/>
<use href="#kd65" x="1176" y="1536"/>
</g>
<g fill="none">
<path d="M48 160 C74 340 22 520 48 700 C74 880 22 1060 48 1240 C68 1380 40 1450 48 1476" stroke="url(#gd65)" stroke-width="2.6"/>
<path d="M1176 160 C1150 340 1202 520 1176 700 C1150 880 1202 1060 1176 1240 C1156 1380 1184 1450 1176 1476" stroke="url(#gd65)" stroke-width="2.6"/>
</g>
<g>
<ellipse cx="612" cy="1544" rx="540" ry="52" fill="url(#ag65)"/>
<rect x="24" y="1492" width="1176" height="14" fill="url(#gd65)"/>
<rect x="24" y="1492" width="1176" height="4" fill="#ffe9bc"/>
</g>
<g filter="url(#gw65)">
<use href="#dy65" transform="translate(140,1540)"/>
<use href="#fl65" transform="translate(140,1534)"/>
<use href="#dy65" transform="translate(242,1540)"/>
<use href="#fl65" transform="translate(242,1534)"/>
<use href="#dy65" transform="translate(344,1540)"/>
<use href="#fl65" transform="translate(344,1534)"/>
<use href="#dy65" transform="translate(446,1540)"/>
<use href="#fl65" transform="translate(446,1534)"/>
<use href="#dy65" transform="translate(548,1540)"/>
<use href="#fl65" transform="translate(548,1534)"/>
<use href="#dy65" transform="translate(650,1540)"/>
<use href="#fl65" transform="translate(650,1534)"/>
<use href="#dy65" transform="translate(752,1540)"/>
<use href="#fl65" transform="translate(752,1534)"/>
<use href="#dy65" transform="translate(854,1540)"/>
<use href="#fl65" transform="translate(854,1534)"/>
<use href="#dy65" transform="translate(956,1540)"/>
<use href="#fl65" transform="translate(956,1534)"/>
<use href="#dy65" transform="translate(1058,1540)"/>
<use href="#fl65" transform="translate(1058,1534)"/>
</g>
<g fill="#c07a28" opacity="0.75">
<circle cx="190" cy="1470" r="3"/><circle cx="392" cy="1464" r="3"/><circle cx="594" cy="1470" r="3"/>
<circle cx="796" cy="1464" r="3"/><circle cx="998" cy="1470" r="3"/>
<circle cx="166" cy="118" r="3"/><circle cx="466" cy="124" r="3"/><circle cx="766" cy="118" r="3"/><circle cx="1042" cy="124" r="3"/>
</g>
<g fill="none" stroke="url(#gd65)" stroke-width="2.4">
<path d="M30 1010 C56 1040 56 1080 30 1110"/>
<path d="M1194 1010 C1168 1040 1168 1080 1194 1110"/>
<path d="M300 30 C330 56 370 56 400 30"/>
<path d="M824 30 C854 56 894 56 924 30"/>
</g>
<g opacity="0.05" transform="translate(612,780) scale(8)">
<path d="M0 0 C-9 -13 -10 -28 -3 -44 C-1 -36 3 -40 4 -50 C10 -38 13 -26 9 -15 C7 -8 5 -3 0 0Z" fill="none" stroke="#8a3508" stroke-width="2"/>
</g>
<rect width="1224" height="1584" filter="url(#gr65)"/>
</svg>
