<svg xmlns="http://www.w3.org/2000/svg" width="1224" height="1584" viewBox="0 0 1224 1584">
<defs><linearGradient id="bgt81" x1="0" y1="0" x2="0.4" y2="1"><stop offset="0" stop-color="#fffcf6"/><stop offset="1" stop-color="#f8eedd"/></linearGradient><linearGradient id="bdt81" x1="0" y1="0" x2="1" y2="1"><stop offset="0" stop-color="#f0dfc4" stop-opacity="0.9"/><stop offset="1" stop-color="#fffcf6" stop-opacity="0.35"/></linearGradient></defs>
<rect width="1224" height="1584" fill="url(#bgt81)"/><rect x="0" y="0" width="1224" height="96" fill="url(#bdt81)"/><rect x="0" y="1488" width="1224" height="96" fill="url(#bdt81)" transform="rotate(180 612 1536)"/><rect x="0" y="0" width="96" height="1584" fill="url(#bdt81)"/><rect x="1128" y="0" width="96" height="1584" fill="url(#bdt81)" transform="rotate(180 1176 792)"/><rect x="14" y="14" width="1196" height="1556" fill="none" stroke="#7a1f2b" stroke-width="5" opacity="0.9"/><circle cx="44.0" cy="44.0" r="6" fill="#7a1f2b" transform="rotate(0 44.0,44.0)"/><circle cx="44.0" cy="44.0" r="11" fill="none" stroke="#c9992f" stroke-width="2.5" transform="rotate(0 44.0,44.0)"/><circle cx="80.0" cy="44.0" r="6" fill="#7a1f2b" transform="rotate(0 80.0,44.0)"/><circle cx="80.0" cy="44.0" r="11" fill="none" stroke="#c9992f" stroke-width="2.5" transform="rotate(0 80.0,44.0)"/><circle cx="116.0" cy="44.0" r="6" fill="#7a1f2b" transform="rotate(0 116.0,44.0)"/><circle cx="116.0" cy="44.0" r="11" fill="none" stroke="#c9992f" stroke-width="2.5" transform="rotate(0 116.0,44.0)"/><circle cx="152.0" cy="44.0" r="6" fill="#7a1f2b" transform="rotate(0 152.0,44.0)"/><circle cx="152.0" cy="44.0" r="11" fill="none" stroke="#c9992f" stroke-width="2.5" transform="rotate(0 152.0,44.0)"/><circle cx="188.0" cy="44.0" r="6" fill="#7a1f2b" transform="rotate(0 188.0,44.0)"/><circle cx="188.0" cy="44.0" r="11" fill="none" stroke="#c9992f" stroke-width="2.5" transform="rotate(0 188.0,44.0)"/><circle cx="224.0" cy="44.0" r="6" fill="#7a1f2b" transform="rotate(0 224.0,44.0)"/><circle cx="224.0" cy="44.0" r="11" fill="none" stroke="#c9992f" stroke-width="2.5" transform="rotate(0 224.0,44.0)"/><circle cx="260.0" cy="44.0" r="6" fill="#7a1f2b" transform="rotate(0 260.0,44.0)"/><circle cx="260.0" cy="44.0" r="11" fill="none" stroke="#c9992f" stroke-width="2.5" transform="rotate(0 260.0,44.0)"/><circle cx="296.0" cy="44.0" r="6" fill="#7a1f2b" transform="rotate(0 296.0,44.0)"/><circle cx="296.0" cy="44.0" r="11" fill="none" stroke="#c9992f" stroke-width="2.5" transform="rotate(0 296.0,44.0)"/><circle cx="332.0" cy="44.0" r="6" fill="#7a1f2b" transform="rotate(0 332.0,44.0)"/><circle cx="332.0" cy="44.0" r="11" fill="none" stroke="#c9992f" stroke-width="2.5" transform="rotate(0 332.0,44.0)"/><circle cx="368.0" cy="44.0" r="6" fill="#7a1f2b" transform="rotate(0 368.0,44.0)"/><circle cx="368.0" cy="44.0" r="11" fill="none" stroke="#c9992f" stroke-width="2.5" transform="rotate(0 368.0,44.0)"/><circle cx="404.0" cy="44.0" r="6" fill="#7a1f2b" transform="rotate(0 404.0,44.0)"/><circle cx="404.0" cy="44.0" r="11" fill="none" stroke="#c9992f" stroke-width="2.5" transform="rotate(0 404.0,44.0)"/><circle cx="440.0" cy="44.0" r="6" fill="#7a1f2b" transform="rotate(0 440.0,44.0)"/><circle cx="440.0" cy="44.0" r="11" fill="none" stroke="#c9992f" stroke-width="2.5" transform="rotate(0 440.0,44.0)"/><circle cx="476.0" cy="44.0" r="6" fill="#7a1f2b" transform="rotate(0 476.0,44.0)"/><circle cx="476.0" cy="44.0" r="11" fill="none" stroke="#c9992f" stroke-width="2.5" transform="rotate(0 476.0,44.0)"/><circle cx="512.0" cy="44.0" r="6" fill="#7a1f2b" transform="rotate(0 512.0,44.0)"/><circle cx="512.0" cy="44.0" r="11" fill="none" stroke="#c9992f" stroke-width="2.5" transform="rotate(0 512.0,44.0)"/><circle cx="548.0" cy="44.0" r="6" fill="#7a1f2b" transform="rotate(0 548.0,44.0)"/><circle cx="548.0" cy="44.0" r="11" fill="none" stroke="#c9992f" stroke-width="2.5" transform="rotate(0 548.0,44.0)"/><circle cx="584.0" cy="44.0" r="6" fill="#7a1f2b" transform="rotate(0 584.0,44.0)"/><circle cx="584.0" cy="44.0" r="11" fill="none" stroke="#c9992f" stroke-width="2.5" transform="rotate(0 584.0,44.0)"/><circle cx="620.0" cy="44.0" r="6" fill="#7a1f2b" transform="rotate(0 620.0,44.0)"/><circle cx="620.0" cy="44.0" r="11" fill="none" stroke="#c9992f" stroke-width="2.5" transform="rotate(0 620.0,44.0)"/><circle cx="656.0" cy="44.0" r="6" fill="#7a1f2b" transform="rotate(0 656.0,44.0)"/><circle cx="656.0" cy="44.0" r="11" fill="none" stroke="#c9992f" stroke-width="2.5" transform="rotate(0 656.0,44.0)"/><circle cx="692.0" cy="44.0" r="6" fill="#7a1f2b" transform="rotate(0 692.0,44.0)"/><circle cx="692.0" cy="44.0" r="11" fill="none" stroke="#c9992f" stroke-width="2.5" transform="rotate(0 692.0,44.0)"/><circle cx="728.0" cy="44.0" r="6" fill="#7a1f2b" transform="rotate(0 728.0,44.0)"/><circle cx="728.0" cy="44.0" r="11" fill="none" stroke="#c9992f" stroke-width="2.5" transform="rotate(0 728.0,44.0)"/><circle cx="764.0" cy="44.0" r="6" fill="#7a1f2b" transform="rotate(0 764.0,44.0)"/><circle cx="764.0" cy="44.0" r="11" fill="none" stroke="#c9992f" stroke-width="2.5" transform="rotate(0 764.0,44.0)"/><circle cx="800.0" cy="44.0" r="6" fill="#7a1f2b" transform="rotate(0 800.0,44.0)"/><circle cx="800.0" cy="44.0" r="11" fill="none" stroke="#c9992f" stroke-width="2.5" transform="rotate(0 800.0,44.0)"/><circle cx="836.0" cy="44.0" r="6" fill="#7a1f2b" transform="rotate(0 836.0,44.0)"/><circle cx="836.0" cy="44.0" r="11" fill="none" stroke="#c9992f" stroke-width="2.5" transform="rotate(0 836.0,44.0)"/><circle cx="872.0" cy="44.0" r="6" fill="#7a1f2b" transform="rotate(0 872.0,44.0)"/><circle cx="872.0" cy="44.0" r="11" fill="none" stroke="#c9992f" stroke-width="2.5" transform="rotate(0 872.0,44.0)"/><circle cx="908.0" cy="44.0" r="6" fill="#7a1f2b" transform="rotate(0 908.0,44.0)"/><circle cx="908.0" cy="44.0" r="11" fill="none" stroke="#c9992f" stroke-width="2.5" transform="rotate(0 908.0,44.0)"/><circle cx="944.0" cy="44.0" r="6" fill="#7a1f2b" transform="rotate(0 944.0,44.0)"/><circle cx="944.0" cy="44.0" r="11" fill="none" stroke="#c9992f" stroke-width="2.5" transform="rotate(0 944.0,44.0)"/><circle cx="980.0" cy="44.0" r="6" fill="#7a1f2b" transform="rotate(0 980.0,44.0)"/><circle cx="980.0" cy="44.0" r="11" fill="none" stroke="#c9992f" stroke-width="2.5" transform="rotate(0 980.0,44.0)"/><circle cx="1016.0" cy="44.0" r="6" fill="#7a1f2b" transform="rotate(0 1016.0,44.0)"/><circle cx="1016.0" cy="44.0" r="11" fill="none" stroke="#c9992f" stroke-width="2.5" transform="rotate(0 1016.0,44.0)"/><circle cx="1052.0" cy="44.0" r="6" fill="#7a1f2b" transform="rotate(0 1052.0,44.0)"/><circle cx="1052.0" cy="44.0" r="11" fill="none" stroke="#c9992f" stroke-width="2.5" transform="rotate(0 1052.0,44.0)"/><circle cx="1088.0" cy="44.0" r="6" fill="#7a1f2b" transform="rotate(0 1088.0,44.0)"/><circle cx="1088.0" cy="44.0" r="11" fill="none" stroke="#c9992f" stroke-width="2.5" transform="rotate(0 1088.0,44.0)"/><circle cx="1124.0" cy="44.0" r="6" fill="#7a1f2b" transform="rotate(0 1124.0,44.0)"/><circle cx="1124.0" cy="44.0" r="11" fill="none" stroke="#c9992f" stroke-width="2.5" transform="rotate(0 1124.0,44.0)"/><circle cx="1160.0" cy="44.0" r="6" fill="#7a1f2b" transform="rotate(0 1160.0,44.0)"/><circle cx="1160.0" cy="44.0" r="11" fill="none" stroke="#c9992f" stroke-width="2.5" transform="rotate(0 1160.0,44.0)"/><circle cx="1180.0" cy="60.0" r="6" fill="#7a1f2b" transform="rotate(90 1180.0,60.0)"/><circle cx="1180.0" cy="60.0" r="11" fill="none" stroke="#c9992f" stroke-width="2.5" transform="rotate(90 1180.0,60.0)"/><circle cx="1180.0" cy="96.0" r="6" fill="#7a1f2b" transform="rotate(90 1180.0,96.0)"/><circle cx="1180.0" cy="96.0" r="11" fill="none" stroke="#c9992f" stroke-width="2.5" transform="rotate(90 1180.0,96.0)"/><circle cx="1180.0" cy="132.0" r="6" fill="#7a1f2b" transform="rotate(90 1180.0,132.0)"/><circle cx="1180.0" cy="132.0" r="11" fill="none" stroke="#c9992f" stroke-width="2.5" transform="rotate(90 1180.0,132.0)"/><circle cx="1180.0" cy="168.0" r="6" fill="#7a1f2b" transform="rotate(90 1180.0,168.0)"/><circle cx="1180.0" cy="168.0" r="11" fill="none" stroke="#c9992f" stroke-width="2.5" transform="rotate(90 1180.0,168.0)"/><circle cx="1180.0" cy="204.0" r="6" fill="#7a1f2b" transform="rotate(90 1180.0,204.0)"/><circle cx="1180.0" cy="204.0" r="11" fill="none" stroke="#c9992f" stroke-width="2.5" transform="rotate(90 1180.0,204.0)"/><circle cx="1180.0" cy="240.0" r="6" fill="#7a1f2b" transform="rotate(90 1180.0,240.0)"/><circle cx="1180.0" cy="240.0" r="11" fill="none" stroke="#c9992f" stroke-width="2.5" transform="rotate(90 1180.0,240.0)"/><circle cx="1180.0" cy="276.0" r="6" fill="#7a1f2b" transform="rotate(90 1180.0,276.0)"/><circle cx="1180.0" cy="276.0" r="11" fill="none" stroke="#c9992f" stroke-width="2.5" transform="rotate(90 1180.0,276.0)"/><circle cx="1180.0" cy="312.0" r="6" fill="#7a1f2b" transform="rotate(90 1180.0,312.0)"/><circle cx="1180.0" cy="312.0" r="11" fill="none" stroke="#c9992f" stroke-width="2.5" transform="rotate(90 1180.0,312.0)"/><circle cx="1180.0" cy="348.0" r="6" fill="#7a1f2b" transform="rotate(90 1180.0,348.0)"/><circle cx="1180.0" cy="348.0" r="11" fill="none" stroke="#c9992f" stroke-width="2.5" transform="rotate(90 1180.0,348.0)"/><circle cx="1180.0" cy="384.0" r="6" fill="#7a1f2b" transform="rotate(90 1180.0,384.0)"/><circle cx="1180.0" cy="384.0" r="11" fill="none" stroke="#c9992f" stroke-width="2.5" transform="rotate(90 1180.0,384.0)"/><circle cx="1180.0" cy="420.0" r="6" fill="#7a1f2b" transform="rotate(90 1180.0,420.0)"/><circle cx="1180.0" cy="420.0" r="11" fill="none" stroke="#c9992f" stroke-width="2.5" transform="rotate(90 1180.0,420.0)"/><circle cx="1180.0" cy="456.0" r="6" fill="#7a1f2b" transform="rotate(90 1180.0,456.0)"/><circle cx="1180.0" cy="456.0" r="11" fill="none" stroke="#c9992f" stroke-width="2.5" transform="rotate(90 1180.0,456.0)"/><circle cx="1180.0" cy="492.0" r="6" fill="#7a1f2b" transform="rotate(90 1180.0,492.0)"/><circle cx="1180.0" cy="492.0" r="11" fill="none" stroke="#c9992f" stroke-width="2.5" transform="rotate(90 1180.0,492.0)"/><circle cx="1180.0" cy="528.0" r="6" fill="#7a1f2b" transform="rotate(90 1180.0,528.0)"/><circle cx="1180.0" cy="528.0" r="11" fill="none" stroke="#c9992f" stroke-width="2.5" transform="rotate(90 1180.0,528.0)"/><circle cx="1180.0" cy="564.0" r="6" fill="#7a1f2b" transform="rotate(90 1180.0,564.0)"/><circle cx="1180.0" cy="564.0" r="11" fill="none" stroke="#c9992f" stroke-width="2.5" transform="rotate(90 1180.0,564.0)"/><circle cx="1180.0" cy="600.0" r="6" fill="#7a1f2b" transform="rotate(90 1180.0,600.0)"/><circle cx="1180.0" cy="600.0" r="11" fill="none" stroke="#c9992f" stroke-width="2.5" transform="rotate(90 1180.0,600.0)"/><circle cx="1180.0" cy="636.0" r="6" fill="#7a1f2b" transform="rotate(90 1180.0,636.0)"/><circle cx="1180.0" cy="636.0" r="11" fill="none" stroke="#c9992f" stroke-width="2.5" transform="rotate(90 1180.0,636.0)"/><circle cx="1180.0" cy="672.0" r="6" fill="#7a1f2b" transform="rotate(90 1180.0,672.0)"/><circle cx="1180.0" cy="672.0" r="11" fill="none" stroke="#c9992f" stroke-width="2.5" transform="rotate(90 1180.0,672.0)"/><circle cx="1180.0" cy="708.0" r="6" fill="#7a1f2b" transform="rotate(90 1180.0,708.0)"/><circle cx="1180.0" cy="708.0" r="11" fill="none" stroke="#c9992f" stroke-width="2.5" transform="rotate(90 1180.0,708.0)"/><circle cx="1180.0" cy="744.0" r="6" fill="#7a1f2b" transform="rotate(90 1180.0,744.0)"/><circle cx="1180.0" cy="744.0" r="11" fill="none" stroke="#c9992f" stroke-width="2.5" transform="rotate(90 1180.0,744.0)"/><circle cx="1180.0" cy="780.0" r="6" fill="#7a1f2b" transform="rotate(90 1180.0,780.0)"/><circle cx="1180.0" cy="780.0" r="11" fill="none" stroke="#c9992f" stroke-width="2.5" transform="rotate(90 1180.0,780.0)"/><circle cx="1180.0" cy="816.0" r="6" fill="#7a1f2b" transform="rotate(90 1180.0,816.0)"/><circle cx="1180.0" cy="816.0" r="11" fill="none" stroke="#c9992f" stroke-width="2.5" transform="rotate(90 1180.0,816.0)"/><circle cx="1180.0" cy="852.0" r="6" fill="#7a1f2b" transform="rotate(90 1180.0,852.0)"/><circle cx="1180.0" cy="852.0" r="11" fill="none" stroke="#c9992f" stroke-width="2.5" transform="rotate(90 1180.0,852.0)"/><circle cx="1180.0" cy="888.0" r="6" fill="#7a1f2b" transform="rotate(90 1180.0,888.0)"/><circle cx="1180.0" cy="888.0" r="11" fill="none" stroke="#c9992f" stroke-width="2.5" transform="rotate(90 1180.0,888.0)"/><circle cx="1180.0" cy="924.0" r="6" fill="#7a1f2b" transform="rotate(90 1180.0,924.0)"/><circle cx="1180.0" cy="924.0" r="11" fill="none" stroke="#c9992f" stroke-width="2.5" transform="rotate(90 1180.0,924.0)"/><circle cx="1180.0" cy="960.0" r="6" fill="#7a1f2b" transform="rotate(90 1180.0,960.0)"/><circle cx="1180.0" cy="960.0" r="11" fill="none" stroke="#c9992f" stroke-width="2.5" transform="rotate(90 1180.0,960.0)"/><circle cx="1180.0" cy="996.0" r="6" fill="#7a1f2b" transform="rotate(90 1180.0,996.0)"/><circle cx="1180.0" cy="996.0" r="11" fill="none" stroke="#c9992f" stroke-width="2.5" transform="rotate(90 1180.0,996.0)"/><circle cx="1180.0" cy="1032.0" r="6" fill="#7a1f2b" transform="rotate(90 1180.0,1032.0)"/><circle cx="1180.0" cy="1032.0" r="11" fill="none" stroke="#c9992f" stroke-width="2.5" transform="rotate(90 1180.0,1032.0)"/><circle cx="1180.0" cy="1068.0" r="6" fill="#7a1f2b" transform="rotate(90 1180.0,1068.0)"/><circle cx="1180.0" cy="1068.0" r="11" fill="none" stroke="#c9992f" stroke-width="2.5" transform="rotate(90 1180.0,1068.0)"/><circle cx="1180.0" cy="1104.0" r="6" fill="#7a1f2b" transform="rotate(90 1180.0,1104.0)"/><circle cx="1180.0" cy="1104.0" r="11" fill="none" stroke="#c9992f" stroke-width="2.5" transform="rotate(90 1180.0,1104.0)"/><circle cx="1180.0" cy="1140.0" r="6" fill="#7a1f2b" transform="rotate(90 1180.0,1140.0)"/><circle cx="1180.0" cy="1140.0" r="11" fill="none" stroke="#c9992f" stroke-width="2.5" transform="rotate(90 1180.0,1140.0)"/><circle cx="1180.0" cy="1176.0" r="6" fill="#7a1f2b" transform="rotate(90 1180.0,1176.0)"/><circle cx="1180.0" cy="1176.0" r="11" fill="none" stroke="#c9992f" stroke-width="2.5" transform="rotate(90 1180.0,1176.0)"/><circle cx="1180.0" cy="1212.0" r="6" fill="#7a1f2b" transform="rotate(90 1180.0,1212.0)"/><circle cx="1180.0" cy="1212.0" r="11" fill="none" stroke="#c9992f" stroke-width="2.5" transform="rotate(90 1180.0,1212.0)"/><circle cx="1180.0" cy="1248.0" r="6" fill="#7a1f2b" transform="rotate(90 1180.0,1248.0)"/><circle cx="1180.0" cy="1248.0" r="11" fill="none" stroke="#c9992f" stroke-width="2.5" transform="rotate(90 1180.0,1248.0)"/><circle cx="1180.0" cy="1284.0" r="6" fill="#7a1f2b" transform="rotate(90 1180.0,1284.0)"/><circle cx="1180.0" cy="1284.0" r="11" fill="none" stroke="#c9992f" stroke-width="2.5" transform="rotate(90 1180.0,1284.0)"/><circle cx="1180.0" cy="1320.0" r="6" fill="#7a1f2b" transform="rotate(90 1180.0,1320.0)"/><circle cx="1180.0" cy="1320.0" r="11" fill="none" stroke="#c9992f" stroke-width="2.5" transform="rotate(90 1180.0,1320.0)"/><circle cx="1180.0" cy="1356.0" r="6" fill="#7a1f2b" transform="rotate(90 1180.0,1356.0)"/><circle cx="1180.0" cy="1356.0" r="11" fill="none" stroke="#c9992f" stroke-width="2.5" transform="rotate(90 1180.0,1356.0)"/><circle cx="1180.0" cy="1392.0" r="6" fill="#7a1f2b" transform="rotate(90 1180.0,1392.0)"/><circle cx="1180.0" cy="1392.0" r="11" fill="none" stroke="#c9992f" stroke-width="2.5" transform="rotate(90 1180.0,1392.0)"/><circle cx="1180.0" cy="1428.0" r="6" fill="#7a1f2b" transform="rotate(90 1180.0,1428.0)"/><circle cx="1180.0" cy="1428.0" r="11" fill="none" stroke="#c9992f" stroke-width="2.5" transform="rotate(90 1180.0,1428.0)"/><circle cx="1180.0" cy="1464.0" r="6" fill="#7a1f2b" transform="rotate(90 1180.0,1464.0)"/><circle cx="1180.0" cy="1464.0" r="11" fill="none" stroke="#c9992f" stroke-width="2.5" transform="rotate(90 1180.0,1464.0)"/><circle cx="1180.0" cy="1500.0" r="6" fill="#7a1f2b" transform="rotate(90 1180.0,1500.0)"/><circle cx="1180.0" cy="1500.0" r="11" fill="none" stroke="#c9992f" stroke-width="2.5" transform="rotate(90 1180.0,1500.0)"/><circle cx="1180.0" cy="1536.0" r="6" fill="#7a1f2b" transform="rotate(90 1180.0,1536.0)"/><circle cx="1180.0" cy="1536.0" r="11" fill="none" stroke="#c9992f" stroke-width="2.5" transform="rotate(90 1180.0,1536.0)"/><circle cx="1148.0" cy="1540.0" r="6" fill="#7a1f2b" transform="rotate(180 1148.0,1540.0)"/><circle cx="1148.0" cy="1540.0" r="11" fill="none" stroke="#c9992f" stroke-width="2.5" transform="rotate(180 1148.0,1540.0)"/><circle cx="1112.0" cy="1540.0" r="6" fill="#7a1f2b" transform="rotate(180 1112.0,1540.0)"/><circle cx="1112.0" cy="1540.0" r="11" fill="none" stroke="#c9992f" stroke-width="2.5" transform="rotate(180 1112.0,1540.0)"/><circle cx="1076.0" cy="1540.0" r="6" fill="#7a1f2b" transform="rotate(180 1076.0,1540.0)"/><circle cx="1076.0" cy="1540.0" r="11" fill="none" stroke="#c9992f" stroke-width="2.5" transform="rotate(180 1076.0,1540.0)"/><circle cx="1040.0" cy="1540.0" r="6" fill="#7a1f2b" transform="rotate(180 1040.0,1540.0)"/><circle cx="1040.0" cy="1540.0" r="11" fill="none" stroke="#c9992f" stroke-width="2.5" transform="rotate(180 1040.0,1540.0)"/><circle cx="1004.0" cy="1540.0" r="6" fill="#7a1f2b" transform="rotate(180 1004.0,1540.0)"/><circle cx="1004.0" cy="1540.0" r="11" fill="none" stroke="#c9992f" stroke-width="2.5" transform="rotate(180 1004.0,1540.0)"/><circle cx="968.0" cy="1540.0" r="6" fill="#7a1f2b" transform="rotate(180 968.0,1540.0)"/><circle cx="968.0" cy="1540.0" r="11" fill="none" stroke="#c9992f" stroke-width="2.5" transform="rotate(180 968.0,1540.0)"/><circle cx="932.0" cy="1540.0" r="6" fill="#7a1f2b" transform="rotate(180 932.0,1540.0)"/><circle cx="932.0" cy="1540.0" r="11" fill="none" stroke="#c9992f" stroke-width="2.5" transform="rotate(180 932.0,1540.0)"/><circle cx="896.0" cy="1540.0" r="6" fill="#7a1f2b" transform="rotate(180 896.0,1540.0)"/><circle cx="896.0" cy="1540.0" r="11" fill="none" stroke="#c9992f" stroke-width="2.5" transform="rotate(180 896.0,1540.0)"/><circle cx="860.0" cy="1540.0" r="6" fill="#7a1f2b" transform="rotate(180 860.0,1540.0)"/><circle cx="860.0" cy="1540.0" r="11" fill="none" stroke="#c9992f" stroke-width="2.5" transform="rotate(180 860.0,1540.0)"/><circle cx="824.0" cy="1540.0" r="6" fill="#7a1f2b" transform="rotate(180 824.0,1540.0)"/><circle cx="824.0" cy="1540.0" r="11" fill="none" stroke="#c9992f" stroke-width="2.5" transform="rotate(180 824.0,1540.0)"/><circle cx="788.0" cy="1540.0" r="6" fill="#7a1f2b" transform="rotate(180 788.0,1540.0)"/><circle cx="788.0" cy="1540.0" r="11" fill="none" stroke="#c9992f" stroke-width="2.5" transform="rotate(180 788.0,1540.0)"/><circle cx="752.0" cy="1540.0" r="6" fill="#7a1f2b" transform="rotate(180 752.0,1540.0)"/><circle cx="752.0" cy="1540.0" r="11" fill="none" stroke="#c9992f" stroke-width="2.5" transform="rotate(180 752.0,1540.0)"/><circle cx="716.0" cy="1540.0" r="6" fill="#7a1f2b" transform="rotate(180 716.0,1540.0)"/><circle cx="716.0" cy="1540.0" r="11" fill="none" stroke="#c9992f" stroke-width="2.5" transform="rotate(180 716.0,1540.0)"/><circle cx="680.0" cy="1540.0" r="6" fill="#7a1f2b" transform="rotate(180 680.0,1540.0)"/><circle cx="680.0" cy="1540.0" r="11" fill="none" stroke="#c9992f" stroke-width="2.5" transform="rotate(180 680.0,1540.0)"/><circle cx="644.0" cy="1540.0" r="6" fill="#7a1f2b" transform="rotate(180 644.0,1540.0)"/><circle cx="644.0" cy="1540.0" r="11" fill="none" stroke="#c9992f" stroke-width="2.5" transform="rotate(180 644.0,1540.0)"/><circle cx="608.0" cy="1540.0" r="6" fill="#7a1f2b" transform="rotate(180 608.0,1540.0)"/><circle cx="608.0" cy="1540.0" r="11" fill="none" stroke="#c9992f" stroke-width="2.5" transform="rotate(180 608.0,1540.0)"/><circle cx="572.0" cy="1540.0" r="6" fill="#7a1f2b" transform="rotate(180 572.0,1540.0)"/><circle cx="572.0" cy="1540.0" r="11" fill="none" stroke="#c9992f" stroke-width="2.5" transform="rotate(180 572.0,1540.0)"/><circle cx="536.0" cy="1540.0" r="6" fill="#7a1f2b" transform="rotate(180 536.0,1540.0)"/><circle cx="536.0" cy="1540.0" r="11" fill="none" stroke="#c9992f" stroke-width="2.5" transform="rotate(180 536.0,1540.0)"/><circle cx="500.0" cy="1540.0" r="6" fill="#7a1f2b" transform="rotate(180 500.0,1540.0)"/><circle cx="500.0" cy="1540.0" r="11" fill="none" stroke="#c9992f" stroke-width="2.5" transform="rotate(180 500.0,1540.0)"/><circle cx="464.0" cy="1540.0" r="6" fill="#7a1f2b" transform="rotate(180 464.0,1540.0)"/><circle cx="464.0" cy="1540.0" r="11" fill="none" stroke="#c9992f" stroke-width="2.5" transform="rotate(180 464.0,1540.0)"/><circle cx="428.0" cy="1540.0" r="6" fill="#7a1f2b" transform="rotate(180 428.0,1540.0)"/><circle cx="428.0" cy="1540.0" r="11" fill="none" stroke="#c9992f" stroke-width="2.5" transform="rotate(180 428.0,1540.0)"/><circle cx="392.0" cy="1540.0" r="6" fill="#7a1f2b" transform="rotate(180 392.0,1540.0)"/><circle cx="392.0" cy="1540.0" r="11" fill="none" stroke="#c9992f" stroke-width="2.5" transform="rotate(180 392.0,1540.0)"/><circle cx="356.0" cy="1540.0" r="6" fill="#7a1f2b" transform="rotate(180 356.0,1540.0)"/><circle cx="356.0" cy="1540.0" r="11" fill="none" stroke="#c9992f" stroke-width="2.5" transform="rotate(180 356.0,1540.0)"/><circle cx="320.0" cy="1540.0" r="6" fill="#7a1f2b" transform="rotate(180 320.0,1540.0)"/><circle cx="320.0" cy="1540.0" r="11" fill="none" stroke="#c9992f" stroke-width="2.5" transform="rotate(180 320.0,1540.0)"/><circle cx="284.0" cy="1540.0" r="6" fill="#7a1f2b" transform="rotate(180 284.0,1540.0)"/><circle cx="284.0" cy="1540.0" r="11" fill="none" stroke="#c9992f" stroke-width="2.5" transform="rotate(180 284.0,1540.0)"/><circle cx="248.0" cy="1540.0" r="6" fill="#7a1f2b" transform="rotate(180 248.0,1540.0)"/><circle cx="248.0" cy="1540.0" r="11" fill="none" stroke="#c9992f" stroke-width="2.5" transform="rotate(180 248.0,1540.0)"/><circle cx="212.0" cy="1540.0" r="6" fill="#7a1f2b" transform="rotate(180 212.0,1540.0)"/><circle cx="212.0" cy="1540.0" r="11" fill="none" stroke="#c9992f" stroke-width="2.5" transform="rotate(180 212.0,1540.0)"/><circle cx="176.0" cy="1540.0" r="6" fill="#7a1f2b" transform="rotate(180 176.0,1540.0)"/><circle cx="176.0" cy="1540.0" r="11" fill="none" stroke="#c9992f" stroke-width="2.5" transform="rotate(180 176.0,1540.0)"/><circle cx="140.0" cy="1540.0" r="6" fill="#7a1f2b" transform="rotate(180 140.0,1540.0)"/><circle cx="140.0" cy="1540.0" r="11" fill="none" stroke="#c9992f" stroke-width="2.5" transform="rotate(180 140.0,1540.0)"/><circle cx="104.0" cy="1540.0" r="6" fill="#7a1f2b" transform="rotate(180 104.0,1540.0)"/><circle cx="104.0" cy="1540.0" r="11" fill="none" stroke="#c9992f" stroke-width="2.5" transform="rotate(180 104.0,1540.0)"/><circle cx="68.0" cy="1540.0" r="6" fill="#7a1f2b" transform="rotate(180 68.0,1540.0)"/><circle cx="68.0" cy="1540.0" r="11" fill="none" stroke="#c9992f" stroke-width="2.5" transform="rotate(180 68.0,1540.0)"/><circle cx="44.0" cy="1528.0" r="6" fill="#7a1f2b" transform="rotate(270 44.0,1528.0)"/><circle cx="44.0" cy="1528.0" r="11" fill="none" stroke="#c9992f" stroke-width="2.5" transform="rotate(270 44.0,1528.0)"/><circle cx="44.0" cy="1492.0" r="6" fill="#7a1f2b" transform="rotate(270 44.0,1492.0)"/><circle cx="44.0" cy="1492.0" r="11" fill="none" stroke="#c9992f" stroke-width="2.5" transform="rotate(270 44.0,1492.0)"/><circle cx="44.0" cy="1456.0" r="6" fill="#7a1f2b" transform="rotate(270 44.0,1456.0)"/><circle cx="44.0" cy="1456.0" r="11" fill="none" stroke="#c9992f" stroke-width="2.5" transform="rotate(270 44.0,1456.0)"/><circle cx="44.0" cy="1420.0" r="6" fill="#7a1f2b" transform="rotate(270 44.0,1420.0)"/><circle cx="44.0" cy="1420.0" r="11" fill="none" stroke="#c9992f" stroke-width="2.5" transform="rotate(270 44.0,1420.0)"/><circle cx="44.0" cy="1384.0" r="6" fill="#7a1f2b" transform="rotate(270 44.0,1384.0)"/><circle cx="44.0" cy="1384.0" r="11" fill="none" stroke="#c9992f" stroke-width="2.5" transform="rotate(270 44.0,1384.0)"/><circle cx="44.0" cy="1348.0" r="6" fill="#7a1f2b" transform="rotate(270 44.0,1348.0)"/><circle cx="44.0" cy="1348.0" r="11" fill="none" stroke="#c9992f" stroke-width="2.5" transform="rotate(270 44.0,1348.0)"/><circle cx="44.0" cy="1312.0" r="6" fill="#7a1f2b" transform="rotate(270 44.0,1312.0)"/><circle cx="44.0" cy="1312.0" r="11" fill="none" stroke="#c9992f" stroke-width="2.5" transform="rotate(270 44.0,1312.0)"/><circle cx="44.0" cy="1276.0" r="6" fill="#7a1f2b" transform="rotate(270 44.0,1276.0)"/><circle cx="44.0" cy="1276.0" r="11" fill="none" stroke="#c9992f" stroke-width="2.5" transform="rotate(270 44.0,1276.0)"/><circle cx="44.0" cy="1240.0" r="6" fill="#7a1f2b" transform="rotate(270 44.0,1240.0)"/><circle cx="44.0" cy="1240.0" r="11" fill="none" stroke="#c9992f" stroke-width="2.5" transform="rotate(270 44.0,1240.0)"/><circle cx="44.0" cy="1204.0" r="6" fill="#7a1f2b" transform="rotate(270 44.0,1204.0)"/><circle cx="44.0" cy="1204.0" r="11" fill="none" stroke="#c9992f" stroke-width="2.5" transform="rotate(270 44.0,1204.0)"/><circle cx="44.0" cy="1168.0" r="6" fill="#7a1f2b" transform="rotate(270 44.0,1168.0)"/><circle cx="44.0" cy="1168.0" r="11" fill="none" stroke="#c9992f" stroke-width="2.5" transform="rotate(270 44.0,1168.0)"/><circle cx="44.0" cy="1132.0" r="6" fill="#7a1f2b" transform="rotate(270 44.0,1132.0)"/><circle cx="44.0" cy="1132.0" r="11" fill="none" stroke="#c9992f" stroke-width="2.5" transform="rotate(270 44.0,1132.0)"/><circle cx="44.0" cy="1096.0" r="6" fill="#7a1f2b" transform="rotate(270 44.0,1096.0)"/><circle cx="44.0" cy="1096.0" r="11" fill="none" stroke="#c9992f" stroke-width="2.5" transform="rotate(270 44.0,1096.0)"/><circle cx="44.0" cy="1060.0" r="6" fill="#7a1f2b" transform="rotate(270 44.0,1060.0)"/><circle cx="44.0" cy="1060.0" r="11" fill="none" stroke="#c9992f" stroke-width="2.5" transform="rotate(270 44.0,1060.0)"/><circle cx="44.0" cy="1024.0" r="6" fill="#7a1f2b" transform="rotate(270 44.0,1024.0)"/><circle cx="44.0" cy="1024.0" r="11" fill="none" stroke="#c9992f" stroke-width="2.5" transform="rotate(270 44.0,1024.0)"/><circle cx="44.0" cy="988.0" r="6" fill="#7a1f2b" transform="rotate(270 44.0,988.0)"/><circle cx="44.0" cy="988.0" r="11" fill="none" stroke="#c9992f" stroke-width="2.5" transform="rotate(270 44.0,988.0)"/><circle cx="44.0" cy="952.0" r="6" fill="#7a1f2b" transform="rotate(270 44.0,952.0)"/><circle cx="44.0" cy="952.0" r="11" fill="none" stroke="#c9992f" stroke-width="2.5" transform="rotate(270 44.0,952.0)"/><circle cx="44.0" cy="916.0" r="6" fill="#7a1f2b" transform="rotate(270 44.0,916.0)"/><circle cx="44.0" cy="916.0" r="11" fill="none" stroke="#c9992f" stroke-width="2.5" transform="rotate(270 44.0,916.0)"/><circle cx="44.0" cy="880.0" r="6" fill="#7a1f2b" transform="rotate(270 44.0,880.0)"/><circle cx="44.0" cy="880.0" r="11" fill="none" stroke="#c9992f" stroke-width="2.5" transform="rotate(270 44.0,880.0)"/><circle cx="44.0" cy="844.0" r="6" fill="#7a1f2b" transform="rotate(270 44.0,844.0)"/><circle cx="44.0" cy="844.0" r="11" fill="none" stroke="#c9992f" stroke-width="2.5" transform="rotate(270 44.0,844.0)"/><circle cx="44.0" cy="808.0" r="6" fill="#7a1f2b" transform="rotate(270 44.0,808.0)"/><circle cx="44.0" cy="808.0" r="11" fill="none" stroke="#c9992f" stroke-width="2.5" transform="rotate(270 44.0,808.0)"/><circle cx="44.0" cy="772.0" r="6" fill="#7a1f2b" transform="rotate(270 44.0,772.0)"/><circle cx="44.0" cy="772.0" r="11" fill="none" stroke="#c9992f" stroke-width="2.5" transform="rotate(270 44.0,772.0)"/><circle cx="44.0" cy="736.0" r="6" fill="#7a1f2b" transform="rotate(270 44.0,736.0)"/><circle cx="44.0" cy="736.0" r="11" fill="none" stroke="#c9992f" stroke-width="2.5" transform="rotate(270 44.0,736.0)"/><circle cx="44.0" cy="700.0" r="6" fill="#7a1f2b" transform="rotate(270 44.0,700.0)"/><circle cx="44.0" cy="700.0" r="11" fill="none" stroke="#c9992f" stroke-width="2.5" transform="rotate(270 44.0,700.0)"/><circle cx="44.0" cy="664.0" r="6" fill="#7a1f2b" transform="rotate(270 44.0,664.0)"/><circle cx="44.0" cy="664.0" r="11" fill="none" stroke="#c9992f" stroke-width="2.5" transform="rotate(270 44.0,664.0)"/><circle cx="44.0" cy="628.0" r="6" fill="#7a1f2b" transform="rotate(270 44.0,628.0)"/><circle cx="44.0" cy="628.0" r="11" fill="none" stroke="#c9992f" stroke-width="2.5" transform="rotate(270 44.0,628.0)"/><circle cx="44.0" cy="592.0" r="6" fill="#7a1f2b" transform="rotate(270 44.0,592.0)"/><circle cx="44.0" cy="592.0" r="11" fill="none" stroke="#c9992f" stroke-width="2.5" transform="rotate(270 44.0,592.0)"/><circle cx="44.0" cy="556.0" r="6" fill="#7a1f2b" transform="rotate(270 44.0,556.0)"/><circle cx="44.0" cy="556.0" r="11" fill="none" stroke="#c9992f" stroke-width="2.5" transform="rotate(270 44.0,556.0)"/><circle cx="44.0" cy="520.0" r="6" fill="#7a1f2b" transform="rotate(270 44.0,520.0)"/><circle cx="44.0" cy="520.0" r="11" fill="none" stroke="#c9992f" stroke-width="2.5" transform="rotate(270 44.0,520.0)"/><circle cx="44.0" cy="484.0" r="6" fill="#7a1f2b" transform="rotate(270 44.0,484.0)"/><circle cx="44.0" cy="484.0" r="11" fill="none" stroke="#c9992f" stroke-width="2.5" transform="rotate(270 44.0,484.0)"/><circle cx="44.0" cy="448.0" r="6" fill="#7a1f2b" transform="rotate(270 44.0,448.0)"/><circle cx="44.0" cy="448.0" r="11" fill="none" stroke="#c9992f" stroke-width="2.5" transform="rotate(270 44.0,448.0)"/><circle cx="44.0" cy="412.0" r="6" fill="#7a1f2b" transform="rotate(270 44.0,412.0)"/><circle cx="44.0" cy="412.0" r="11" fill="none" stroke="#c9992f" stroke-width="2.5" transform="rotate(270 44.0,412.0)"/><circle cx="44.0" cy="376.0" r="6" fill="#7a1f2b" transform="rotate(270 44.0,376.0)"/><circle cx="44.0" cy="376.0" r="11" fill="none" stroke="#c9992f" stroke-width="2.5" transform="rotate(270 44.0,376.0)"/><circle cx="44.0" cy="340.0" r="6" fill="#7a1f2b" transform="rotate(270 44.0,340.0)"/><circle cx="44.0" cy="340.0" r="11" fill="none" stroke="#c9992f" stroke-width="2.5" transform="rotate(270 44.0,340.0)"/><circle cx="44.0" cy="304.0" r="6" fill="#7a1f2b" transform="rotate(270 44.0,304.0)"/><circle cx="44.0" cy="304.0" r="11" fill="none" stroke="#c9992f" stroke-width="2.5" transform="rotate(270 44.0,304.0)"/><circle cx="44.0" cy="268.0" r="6" fill="#7a1f2b" transform="rotate(270 44.0,268.0)"/><circle cx="44.0" cy="268.0" r="11" fill="none" stroke="#c9992f" stroke-width="2.5" transform="rotate(270 44.0,268.0)"/><circle cx="44.0" cy="232.0" r="6" fill="#7a1f2b" transform="rotate(270 44.0,232.0)"/><circle cx="44.0" cy="232.0" r="11" fill="none" stroke="#c9992f" stroke-width="2.5" transform="rotate(270 44.0,232.0)"/><circle cx="44.0" cy="196.0" r="6" fill="#7a1f2b" transform="rotate(270 44.0,196.0)"/><circle cx="44.0" cy="196.0" r="11" fill="none" stroke="#c9992f" stroke-width="2.5" transform="rotate(270 44.0,196.0)"/><circle cx="44.0" cy="160.0" r="6" fill="#7a1f2b" transform="rotate(270 44.0,160.0)"/><circle cx="44.0" cy="160.0" r="11" fill="none" stroke="#c9992f" stroke-width="2.5" transform="rotate(270 44.0,160.0)"/><circle cx="44.0" cy="124.0" r="6" fill="#7a1f2b" transform="rotate(270 44.0,124.0)"/><circle cx="44.0" cy="124.0" r="11" fill="none" stroke="#c9992f" stroke-width="2.5" transform="rotate(270 44.0,124.0)"/><circle cx="44.0" cy="88.0" r="6" fill="#7a1f2b" transform="rotate(270 44.0,88.0)"/><circle cx="44.0" cy="88.0" r="11" fill="none" stroke="#c9992f" stroke-width="2.5" transform="rotate(270 44.0,88.0)"/><circle cx="44.0" cy="52.0" r="6" fill="#7a1f2b" transform="rotate(270 44.0,52.0)"/><circle cx="44.0" cy="52.0" r="11" fill="none" stroke="#c9992f" stroke-width="2.5" transform="rotate(270 44.0,52.0)"/><rect x="58" y="58" width="1108" height="1468" fill="none" stroke="#c9992f" stroke-width="1.5"/><g transform="translate(18,18) scale(1.12)"><path d="M14,14 C70,10 128,38 130,92 C131,128 104,150 78,144 C56,139 48,116 60,100 C70,87 90,90 94,104 C97,114 90,122 82,120" fill="none" stroke="#7a1f2b" stroke-width="7" stroke-linecap="round"/><circle cx="118" cy="46" r="7" fill="#7a1f2b"/><circle cx="98" cy="30" r="5" fill="#7a1f2b"/><circle cx="76" cy="22" r="4" fill="#7a1f2b"/><path d="M20,60 C40,66 52,86 50,110" fill="none" stroke="#7a1f2b" stroke-width="4" stroke-linecap="round" opacity="0.75"/><circle cx="30" cy="130" r="6" fill="#7a1f2b" opacity="0.8"/><circle cx="52" cy="140" r="4" fill="#7a1f2b" opacity="0.8"/></g><g transform="translate(1206,18) scale(-1.12,1.12)"><path d="M14,14 C70,10 128,38 130,92 C131,128 104,150 78,144 C56,139 48,116 60,100 C70,87 90,90 94,104 C97,114 90,122 82,120" fill="none" stroke="#7a1f2b" stroke-width="7" stroke-linecap="round"/><circle cx="118" cy="46" r="7" fill="#7a1f2b"/><circle cx="98" cy="30" r="5" fill="#7a1f2b"/><circle cx="76" cy="22" r="4" fill="#7a1f2b"/><path d="M20,60 C40,66 52,86 50,110" fill="none" stroke="#7a1f2b" stroke-width="4" stroke-linecap="round" opacity="0.75"/><circle cx="30" cy="130" r="6" fill="#7a1f2b" opacity="0.8"/><circle cx="52" cy="140" r="4" fill="#7a1f2b" opacity="0.8"/></g><g transform="translate(18,1566) scale(1.12,-1.12)"><path d="M14,14 C70,10 128,38 130,92 C131,128 104,150 78,144 C56,139 48,116 60,100 C70,87 90,90 94,104 C97,114 90,122 82,120" fill="none" stroke="#7a1f2b" stroke-width="7" stroke-linecap="round"/><circle cx="118" cy="46" r="7" fill="#7a1f2b"/><circle cx="98" cy="30" r="5" fill="#7a1f2b"/><circle cx="76" cy="22" r="4" fill="#7a1f2b"/><path d="M20,60 C40,66 52,86 50,110" fill="none" stroke="#7a1f2b" stroke-width="4" stroke-linecap="round" opacity="0.75"/><circle cx="30" cy="130" r="6" fill="#7a1f2b" opacity="0.8"/><circle cx="52" cy="140" r="4" fill="#7a1f2b" opacity="0.8"/></g><g transform="translate(1206,1566) scale(-1.12,-1.12)"><path d="M14,14 C70,10 128,38 130,92 C131,128 104,150 78,144 C56,139 48,116 60,100 C70,87 90,90 94,104 C97,114 90,122 82,120" fill="none" stroke="#7a1f2b" stroke-width="7" stroke-linecap="round"/><circle cx="118" cy="46" r="7" fill="#7a1f2b"/><circle cx="98" cy="30" r="5" fill="#7a1f2b"/><circle cx="76" cy="22" r="4" fill="#7a1f2b"/><path d="M20,60 C40,66 52,86 50,110" fill="none" stroke="#7a1f2b" stroke-width="4" stroke-linecap="round" opacity="0.75"/><circle cx="30" cy="130" r="6" fill="#7a1f2b" opacity="0.8"/><circle cx="52" cy="140" r="4" fill="#7a1f2b" opacity="0.8"/></g><rect x="96" y="96" width="1032" height="1392" fill="none" stroke="#c9992f" stroke-width="2" opacity="0.75"/><rect x="104" y="104" width="1016" height="1376" fill="none" stroke="#a4402f" stroke-width="1" opacity="0.55"/><path d="M230,278 Q612,152 994,278" fill="none" stroke="#c9992f" stroke-width="2.5" opacity="0.55"/><path d="M250,268 Q612,164 974,268" fill="none" stroke="#a4402f" stroke-width="1.2" opacity="0.4"/><circle cx="612" cy="196" r="7" fill="#c9992f" opacity="0.7"/><circle cx="612" cy="196" r="13" fill="none" stroke="#a4402f" stroke-width="1.5" opacity="0.5"/><path d="M120,290 H752" stroke="#a4402f" stroke-width="1.4" opacity="0.55"/><circle cx="120" cy="290" r="4" fill="#c9992f" opacity="0.7"/><circle cx="752" cy="290" r="4" fill="#c9992f" opacity="0.7"/><rect x="770" y="298" width="340" height="434" rx="4" fill="none" stroke="#c9992f" stroke-width="3" opacity="0.7"/><rect x="780" y="308" width="320" height="414" rx="2" fill="none" stroke="#a4402f" stroke-width="1.2" opacity="0.55"/><g transform="translate(764,292) scale(0.32)" opacity="0.6"><path d="M14,14 C70,10 128,38 130,92 C131,128 104,150 78,144 C56,139 48,116 60,100 C70,87 90,90 94,104 C97,114 90,122 82,120" fill="none" stroke="#c9992f" stroke-width="7" stroke-linecap="round"/><circle cx="118" cy="46" r="7" fill="#c9992f"/><circle cx="98" cy="30" r="5" fill="#c9992f"/><circle cx="76" cy="22" r="4" fill="#c9992f"/><path d="M20,60 C40,66 52,86 50,110" fill="none" stroke="#c9992f" stroke-width="4" stroke-linecap="round" opacity="0.75"/><circle cx="30" cy="130" r="6" fill="#c9992f" opacity="0.8"/><circle cx="52" cy="140" r="4" fill="#c9992f" opacity="0.8"/></g><g transform="translate(1120,746) scale(-0.32,0.32)" opacity="0.6"><path d="M14,14 C70,10 128,38 130,92 C131,128 104,150 78,144 C56,139 48,116 60,100 C70,87 90,90 94,104 C97,114 90,122 82,120" fill="none" stroke="#c9992f" stroke-width="7" stroke-linecap="round"/><circle cx="118" cy="46" r="7" fill="#c9992f"/><circle cx="98" cy="30" r="5" fill="#c9992f"/><circle cx="76" cy="22" r="4" fill="#c9992f"/><path d="M20,60 C40,66 52,86 50,110" fill="none" stroke="#c9992f" stroke-width="4" stroke-linecap="round" opacity="0.75"/><circle cx="30" cy="130" r="6" fill="#c9992f" opacity="0.8"/><circle cx="52" cy="140" r="4" fill="#c9992f" opacity="0.8"/></g><path d="M108,1436 H752" stroke="#a4402f" stroke-width="1.4" opacity="0.5"/><g transform="translate(612,1462)" opacity="0.75"><circle r="7" fill="#c9992f"/><circle r="14" fill="none" stroke="#a4402f" stroke-width="1.5"/><line x1="-52" y1="0" x2="-20" y2="0" stroke="#a4402f" stroke-width="2"/><line x1="20" y1="0" x2="52" y2="0" stroke="#a4402f" stroke-width="2"/></g>
</svg>
