<svg xmlns="http://www.w3.org/2000/svg" width="1224" height="1584" viewBox="0 0 1224 1584">
<defs>
<linearGradient id="p93" x1="0" y1="0" x2="1" y2="1">
<stop offset="0" stop-color="#fffefb"/><stop offset="1" stop-color="#f7f2e9"/>
</linearGradient>
<pattern id="dots93" width="28" height="28" patternUnits="userSpaceOnUse">
<circle cx="2" cy="2" r="1" fill="#1a1a1a" opacity=".16"/>
</pattern>
</defs>
<rect width="1224" height="1584" fill="url(#p93)"/>
<rect x="96" y="96" width="1032" height="1392" fill="url(#dots93)"/>
<rect x="0" y="0" width="1224" height="86" fill="#111111"/>
<rect x="0" y="86" width="1224" height="10" fill="#d8232f"/>
<rect x="0" y="1498" width="1224" height="86" fill="#111111"/>
<rect x="0" y="1478" width="1224" height="10" fill="#d8232f"/>
<rect x="0" y="96" width="56" height="1382" fill="#d8232f"/>
<rect x="0" y="96" width="56" height="691" fill="#111111"/>
<rect x="1168" y="96" width="56" height="1382" fill="#111111"/>
<rect x="1168" y="787" width="56" height="691" fill="#d8232f"/>
<g fill="#111111">
<rect x="96" y="96" width="1032" height="5"/>
<rect x="96" y="1483" width="1032" height="5"/>
<rect x="96" y="96" width="5" height="1392"/>
<rect x="1123" y="96" width="5" height="1392"/>
</g>
<g fill="#d8232f">
<rect x="104" y="104" width="100" height="4"/>
<rect x="104" y="104" width="4" height="100"/>
<rect x="1120" y="1476" width="100" height="4"/>
<rect x="1116" y="1376" width="4" height="100"/>
<rect x="104" y="1476" width="100" height="4"/>
<rect x="104" y="1376" width="4" height="100"/>
<rect x="1020" y="104" width="100" height="4"/>
<rect x="1116" y="104" width="4" height="100"/>
</g>
<g fill="none" stroke="#111111" stroke-width="3">
<path d="M96 240V96h144M1128 240V96h-144M96 1344v144h144M1128 1344v144h-144"/>
</g>
<g fill="none" stroke="#d8232f" stroke-width="1.5">
<path d="M112 224V112h112M1112 224V112h-112M112 1360v112h112M1112 1360v112h-112"/>
</g>
<g fill="none" stroke="#111111" stroke-width="2">
<path d="M96 102h1032M96 1486h1032"/>
</g>
<g fill="none" stroke="#111111" stroke-width="1.5">
<path d="M760 292v1148"/>
<path d="M1030 110v170"/>
</g>
<g fill="none" stroke="#d8232f" stroke-width="4">
<path d="M764 754h352"/>
<path d="M1036 274h80"/>
</g>
<g stroke="#111111" stroke-width="1.6" fill="none">
<path d="M760 268h20M760 300h-14M760 1440h20M760 1436h-14"/>
<path d="M744 292v20M776 292v-14M744 1440v-20M776 1440v14"/>
</g>
<g stroke="#111111" stroke-width="1.6" fill="none">
<path d="M764 340h14M764 388h14M764 436h14M764 484h14M764 532h14M764 580h14M764 628h14M764 676h14M764 724h14"/>
<path d="M764 818h14M764 866h14M764 914h14M764 962h14M764 1010h14M764 1058h14M764 1106h14M764 1154h14M764 1202h14M764 1250h14M764 1298h14M764 1346h14M764 1394h14"/>
</g>
<g stroke="#d8232f" stroke-width="3" fill="none">
<path d="M764 340h26M764 818h26"/>
</g>
<g stroke="#111111" stroke-width="1.6" fill="none">
<path d="M98 340h10M98 460h10M98 580h10M98 700h10M98 820h10M98 940h10M98 1060h10M98 1180h10M98 1300h10M98 1420h10"/>
<path d="M1114 340h10M1114 460h10M1114 580h10M1114 700h10M1114 820h10M1114 940h10M1114 1060h10M1114 1180h10M1114 1300h10M1114 1420h10"/>
</g>
<g fill="#d8232f">
<rect x="96" y="456" width="12" height="12"/><rect x="96" y="936" width="12" height="12"/>
<rect x="1116" y="456" width="12" height="12"/><rect x="1116" y="936" width="12" height="12"/>
</g>
<g fill="#111111">
<rect x="600" y="40" width="6" height="30"/><rect x="618" y="40" width="6" height="30"/><rect x="600" y="70" width="24" height="6"/>
<rect x="600" y="1514" width="6" height="30"/><rect x="618" y="1514" width="6" height="30"/><rect x="600" y="1508" width="24" height="6"/>
</g>
<g>
<rect x="820" y="1080" width="296" height="296" fill="none" stroke="#111111" stroke-width="4"/>
<rect x="838" y="1098" width="260" height="260" fill="none" stroke="#111111" stroke-width="1.5"/>
<rect x="856" y="1116" width="224" height="224" fill="none" stroke="#d8232f" stroke-width="3"/>
<rect x="874" y="1134" width="188" height="188" fill="none" stroke="#111111" stroke-width="1"/>
<rect x="892" y="1152" width="152" height="152" fill="#d8232f"/>
<rect x="918" y="1178" width="100" height="100" fill="#fffdf8"/>
<rect x="944" y="1204" width="48" height="48" fill="#111111"/>
</g>
<g fill="none" stroke="#111111" stroke-width="2">
<path d="M784 1044h328M784 1412h328"/>
</g>
<g fill="#d8232f">
<rect x="784" y="1036" width="80" height="8"/>
<rect x="1032" y="1404" width="80" height="8"/>
</g>
<g fill="#111111" opacity=".85">
<path d="M76 38l6 6-6 6-6-6zM1148 38l6 6-6 6-6-6zM76 1534l6 6-6 6-6-6zM1148 1534l6 6-6 6-6-6z"/>
<path d="M612 38l6 6-6 6-6-6zM612 1534l6 6-6 6-6-6zM38 786l6 6-6 6-6-6zM1180 786l6 6-6 6-6-6z"/>
</g>
<g fill="#d8232f">
<rect x="600" y="480" width="24" height="24"/>
<rect x="600" y="1080" width="24" height="24"/>
</g>
<g fill="none" stroke="#111111" stroke-width="1">
<rect x="88" y="88" width="1048" height="1408"/>
</g>
<g fill="none" stroke="#d8232f" stroke-width="1.5">
<path d="M56 138h24M56 138v24M1168 138h-24M1168 138v24M56 1446h24M56 1446v-24M1168 1446h-24M1168 1446v-24"/>
</g>
</svg>
